<svg width="747" height="747" viewBox="0 0 747 747" fill="none" xmlns="http://www.w3.org/2000/svg">
<path opacity="0.0714286" d="M588.36 284.394L569.892 526.599C568.208 548.686 551.629 566.752 529.767 570.322L309.31 606.323C289.311 609.588 269.416 599.944 259.592 582.221L135.974 359.209C126.15 341.486 128.514 319.503 141.881 304.274L289.236 136.393C303.848 119.745 327.955 115.258 347.578 125.534L562.767 238.222C579.755 247.118 589.818 265.272 588.36 284.394Z" stroke="url(#paint0_linear_1288_244)" stroke-width="4"/>
<path opacity="0.142857" d="M606.023 375.415L494.385 591.15C484.205 610.823 461.884 620.975 440.366 615.719L223.367 562.718C203.683 557.91 189.138 541.259 187.019 521.106L160.367 267.521C158.248 247.369 169.014 228.057 187.269 219.261L388.506 122.302C408.461 112.687 432.405 117.976 446.453 135.103L600.505 322.913C612.666 337.74 614.836 358.383 606.023 375.415Z" stroke="url(#paint1_linear_1288_244)" stroke-width="4"/>
<path opacity="0.214286" d="M586.72 466.103L399.663 621.068C382.605 635.2 358.092 635.823 340.338 622.577L161.299 489.001C145.058 476.884 138.175 455.873 144.1 436.495L218.649 192.655C224.574 173.277 242.029 159.707 262.269 158.743L485.394 148.121C507.52 147.068 527.493 161.292 533.733 182.546L602.155 415.619C607.557 434.019 601.488 453.869 586.72 466.103Z" stroke="url(#paint2_linear_1288_244)" stroke-width="4"/>
<path opacity="0.285714" d="M533.511 542.039L300.774 611.596C279.551 617.939 256.743 608.935 245.575 589.805L132.962 396.891C122.746 379.391 124.62 357.361 137.645 341.839L301.544 146.511C314.569 130.989 335.939 125.317 354.947 132.339L564.485 209.743C585.264 217.419 598.091 238.317 595.53 260.319L567.444 501.599C565.227 520.647 551.885 536.547 533.511 542.039Z" stroke="url(#paint3_linear_1288_244)" stroke-width="4"/>
<path opacity="0.357143" d="M454.862 591.148L213.448 564.238C191.434 561.784 173.957 544.584 171.152 522.611L142.868 301.032C140.302 280.932 150.635 261.385 168.69 252.186L395.88 136.426C413.935 127.227 435.822 130.356 450.576 144.247L613.212 297.371C629.34 312.555 632.982 336.804 622.028 356.056L501.899 567.181C492.415 583.849 473.921 593.272 454.862 591.148Z" stroke="url(#paint4_linear_1288_244)" stroke-width="4"/>
<path opacity="0.428571" d="M363.286 605.623L151.578 486.525C132.272 475.664 122.906 453.003 128.909 431.681L189.451 216.664C194.943 197.159 212.092 183.204 232.306 181.791L486.667 164.004C506.881 162.59 525.805 174.023 533.958 192.574L623.836 397.072C632.748 417.351 626.627 441.096 609.02 454.537L415.948 601.941C400.706 613.578 379.999 615.026 363.286 605.623Z" stroke="url(#paint5_linear_1288_244)" stroke-width="4"/>
<path opacity="0.5" d="M273.324 583.164L124.982 390.813C111.454 373.272 111.686 348.753 125.544 331.471L265.287 157.203C277.963 141.395 299.202 135.25 318.361 141.847L559.451 224.861C578.611 231.458 591.564 249.376 591.82 269.638L594.649 492.997C594.929 515.146 580.017 534.611 558.558 540.105L323.239 600.351C304.661 605.108 285.035 598.35 273.324 583.164Z" stroke="url(#paint6_linear_1288_244)" stroke-width="4"/>
<path opacity="0.571429" d="M199.294 527.341L137.902 292.319C132.303 270.887 142.098 248.407 161.606 237.914L358.332 132.102C376.178 122.503 398.129 125.145 413.187 138.704L602.676 309.32C617.735 322.879 622.656 344.433 614.976 363.185L530.306 569.894C521.91 590.392 500.577 602.482 478.677 599.155L238.525 562.665C219.566 559.785 204.141 545.896 199.294 527.341Z" stroke="url(#paint7_linear_1288_244)" stroke-width="4"/>
<path opacity="0.642857" d="M152.958 447.029L188.277 206.701C191.498 184.786 209.297 167.92 231.354 165.884L453.786 145.35C473.963 143.487 493.137 154.496 501.701 172.861L609.461 403.953C618.025 422.318 614.133 444.082 599.736 458.342L441.03 615.535C425.292 631.123 400.931 633.917 382.072 622.297L175.269 494.873C158.942 484.814 150.17 466.002 152.958 447.029Z" stroke="url(#paint8_linear_1288_244)" stroke-width="4"/>
<path opacity="0.714286" d="M141.685 354.997L268.099 147.575C279.627 128.66 302.601 120.09 323.701 126.834L536.473 194.843C555.775 201.012 569.123 218.638 569.83 238.889L578.729 493.716C579.436 513.967 567.35 532.48 548.526 539.981L341.015 622.667C320.438 630.866 296.921 623.92 284.102 605.855L143.527 407.756C132.429 392.117 131.705 371.373 141.685 354.997Z" stroke="url(#paint9_linear_1288_244)" stroke-width="4"/>
<path opacity="0.785714" d="M167.272 265.877L364.683 124.338C382.685 111.431 407.182 112.519 423.969 126.971L593.254 272.71C608.61 285.931 614.01 307.371 606.749 326.289L515.371 564.335C508.11 583.252 489.75 595.572 469.492 595.121L246.17 590.153C224.024 589.66 205.092 574.077 200.35 552.44L148.353 315.162C144.248 296.429 151.687 277.051 167.272 265.877Z" stroke="url(#paint10_linear_1288_244)" stroke-width="4"/>
<path opacity="0.857143" d="M225.644 193.838L462.666 140.685C484.281 135.838 506.405 146.411 516.21 166.274L615.093 366.573C624.063 384.743 620.657 406.588 606.581 421.165L429.455 604.583C415.379 619.16 393.666 623.326 375.194 614.996L171.566 523.164C151.373 514.057 140.035 492.315 144.124 470.545L188.973 231.813C192.514 212.966 206.932 198.034 225.644 193.838Z" stroke="url(#paint11_linear_1288_244)" stroke-width="4"/>
<path opacity="0.928571" d="M307.523 150.335L546.472 194.019C568.262 198.003 584.496 216.38 585.761 238.495L598.52 461.507C599.677 481.738 588.006 500.516 569.354 508.433L334.641 608.063C315.989 615.98 294.374 611.332 280.625 596.446L129.066 432.35C114.037 416.078 112.095 391.634 124.366 373.192L258.929 170.962C269.553 154.996 288.659 146.886 307.523 150.335Z" stroke="url(#paint12_linear_1288_244)" stroke-width="4"/>
<path d="M399.394 142.356L602.498 276.069C621 288.249 628.764 311.51 621.287 332.362L545.811 542.849C538.972 561.923 520.891 574.648 500.628 574.648H245.372C225.109 574.648 207.028 561.923 200.189 542.849L124.713 332.362C117.236 311.51 124.999 288.249 143.502 276.069L346.606 142.356C362.622 131.811 383.378 131.811 399.394 142.356Z" stroke="url(#paint13_linear_1288_244)" stroke-width="4"/>
<path d="M299.507 337.992C296.335 332.359 292.904 326.798 289.212 321.307C285.52 315.816 281.591 310.633 277.426 305.758V337.992H266.492V288.789H275.509C277.071 290.351 278.798 292.268 280.692 294.54C282.585 296.812 284.502 299.25 286.443 301.853C288.431 304.409 290.395 307.083 292.336 309.876C294.276 312.621 296.099 315.272 297.803 317.828V288.789H308.808V337.992H299.507ZM333.719 330.608C334.76 330.608 335.754 330.584 336.701 330.537C337.647 330.49 338.405 330.419 338.973 330.324V322.301C338.547 322.206 337.908 322.112 337.056 322.017C336.204 321.922 335.423 321.875 334.713 321.875C333.719 321.875 332.772 321.946 331.873 322.088C331.021 322.183 330.263 322.396 329.601 322.727C328.938 323.058 328.417 323.508 328.039 324.076C327.66 324.644 327.471 325.354 327.471 326.206C327.471 327.863 328.015 329.022 329.104 329.685C330.24 330.3 331.778 330.608 333.719 330.608ZM332.867 299.652C335.991 299.652 338.594 300.007 340.677 300.717C342.759 301.427 344.416 302.445 345.647 303.77C346.925 305.095 347.824 306.705 348.345 308.598C348.865 310.491 349.126 312.598 349.126 314.917V336.927C347.611 337.258 345.505 337.637 342.807 338.063C340.109 338.536 336.843 338.773 333.009 338.773C330.595 338.773 328.394 338.56 326.406 338.134C324.465 337.708 322.785 337.022 321.365 336.075C319.945 335.081 318.856 333.803 318.099 332.241C317.341 330.679 316.963 328.762 316.963 326.49C316.963 324.313 317.389 322.467 318.241 320.952C319.14 319.437 320.323 318.23 321.791 317.331C323.258 316.432 324.938 315.793 326.832 315.414C328.725 314.988 330.689 314.775 332.725 314.775C334.097 314.775 335.304 314.846 336.346 314.988C337.434 315.083 338.31 315.225 338.973 315.414V314.42C338.973 312.621 338.428 311.178 337.34 310.089C336.251 309 334.358 308.456 331.66 308.456C329.861 308.456 328.086 308.598 326.335 308.882C324.583 309.119 323.069 309.474 321.791 309.947L320.442 301.427C321.057 301.238 321.814 301.048 322.714 300.859C323.66 300.622 324.678 300.433 325.767 300.291C326.855 300.102 327.991 299.96 329.175 299.865C330.405 299.723 331.636 299.652 332.867 299.652ZM358.337 291.345L368.916 289.641V300.646H381.625V309.45H368.916V322.585C368.916 324.81 369.294 326.585 370.052 327.91C370.856 329.235 372.442 329.898 374.809 329.898C375.945 329.898 377.104 329.803 378.288 329.614C379.518 329.377 380.631 329.07 381.625 328.691L383.116 336.927C381.838 337.448 380.418 337.897 378.856 338.276C377.294 338.655 375.377 338.844 373.105 338.844C370.217 338.844 367.827 338.465 365.934 337.708C364.04 336.903 362.526 335.815 361.39 334.442C360.254 333.022 359.449 331.318 358.976 329.33C358.55 327.342 358.337 325.141 358.337 322.727V291.345ZM400.819 337.992H390.24V300.646H400.819V337.992ZM401.813 289.854C401.813 291.795 401.174 293.333 399.896 294.469C398.665 295.558 397.198 296.102 395.494 296.102C393.79 296.102 392.299 295.558 391.021 294.469C389.79 293.333 389.175 291.795 389.175 289.854C389.175 287.913 389.79 286.399 391.021 285.31C392.299 284.174 393.79 283.606 395.494 283.606C397.198 283.606 398.665 284.174 399.896 285.31C401.174 286.399 401.813 287.913 401.813 289.854ZM419.807 337.992C417.393 333.259 414.931 327.721 412.423 321.378C409.961 315.035 407.618 308.125 405.394 300.646H416.612C417.085 302.492 417.629 304.504 418.245 306.681C418.907 308.811 419.57 310.988 420.233 313.213C420.943 315.39 421.629 317.52 422.292 319.603C423.002 321.686 423.688 323.579 424.351 325.283C424.966 323.579 425.629 321.686 426.339 319.603C427.049 317.52 427.735 315.39 428.398 313.213C429.108 310.988 429.77 308.811 430.386 306.681C431.048 304.504 431.616 302.492 432.09 300.646H443.024C440.799 308.125 438.432 315.035 435.924 321.378C433.462 327.721 431.025 333.259 428.611 337.992H419.807ZM445.944 319.603C445.944 316.29 446.441 313.402 447.435 310.941C448.476 308.432 449.825 306.35 451.482 304.693C453.139 303.036 455.032 301.782 457.162 300.93C459.339 300.078 461.564 299.652 463.836 299.652C469.137 299.652 473.326 301.285 476.403 304.551C479.48 307.77 481.018 312.527 481.018 318.822C481.018 319.437 480.994 320.124 480.947 320.881C480.9 321.591 480.852 322.23 480.805 322.798H456.807C457.044 324.975 458.061 326.703 459.86 327.981C461.659 329.259 464.073 329.898 467.102 329.898C469.043 329.898 470.936 329.732 472.782 329.401C474.675 329.022 476.214 328.573 477.397 328.052L478.817 336.643C478.249 336.927 477.492 337.211 476.545 337.495C475.598 337.779 474.533 338.016 473.35 338.205C472.214 338.442 470.983 338.631 469.658 338.773C468.333 338.915 467.007 338.986 465.682 338.986C462.321 338.986 459.387 338.489 456.878 337.495C454.417 336.501 452.358 335.152 450.701 333.448C449.092 331.697 447.885 329.638 447.08 327.271C446.323 324.904 445.944 322.348 445.944 319.603ZM470.794 315.556C470.747 314.657 470.581 313.781 470.297 312.929C470.06 312.077 469.658 311.32 469.09 310.657C468.569 309.994 467.883 309.45 467.031 309.024C466.226 308.598 465.209 308.385 463.978 308.385C462.795 308.385 461.777 308.598 460.925 309.024C460.073 309.403 459.363 309.923 458.795 310.586C458.227 311.249 457.777 312.03 457.446 312.929C457.162 313.781 456.949 314.657 456.807 315.556H470.794ZM334.581 455.992C333.643 452.92 332.576 449.763 331.381 446.52C330.272 443.277 329.163 440.035 328.053 436.792H293.493C292.384 440.035 291.232 443.277 290.037 446.52C288.928 449.763 287.904 452.92 286.965 455.992H266.229C269.557 446.435 272.715 437.603 275.701 429.496C278.688 421.389 281.589 413.752 284.405 406.584C287.307 399.416 290.123 392.632 292.853 386.232C295.669 379.747 298.571 373.432 301.557 367.288H320.629C323.531 373.432 326.389 379.747 329.205 386.232C332.021 392.632 334.837 399.416 337.653 406.584C340.555 413.752 343.499 421.389 346.485 429.496C349.472 437.603 352.629 446.435 355.957 455.992H334.581ZM310.645 387.384C310.219 388.664 309.579 390.413 308.725 392.632C307.872 394.851 306.891 397.411 305.781 400.312C304.672 403.213 303.435 406.413 302.069 409.912C300.789 413.411 299.467 417.08 298.101 420.92H323.317C321.952 417.08 320.629 413.411 319.349 409.912C318.069 406.413 316.832 403.213 315.637 400.312C314.528 397.411 313.547 394.851 312.693 392.632C311.84 390.413 311.157 388.664 310.645 387.384ZM394.063 366.264C407.29 366.264 417.445 368.611 424.527 373.304C431.61 377.912 435.151 385.507 435.151 396.088C435.151 406.755 431.567 414.477 424.399 419.256C417.231 423.949 406.991 426.296 393.679 426.296H387.407V455.992H367.439V368.568C371.791 367.715 376.399 367.117 381.263 366.776C386.127 366.435 390.394 366.264 394.063 366.264ZM395.343 383.288C393.893 383.288 392.442 383.331 390.991 383.416C389.626 383.501 388.431 383.587 387.407 383.672V409.272H393.679C400.591 409.272 405.797 408.333 409.295 406.456C412.794 404.579 414.543 401.08 414.543 395.96C414.543 393.485 414.074 391.437 413.135 389.816C412.282 388.195 411.002 386.915 409.295 385.976C407.674 384.952 405.669 384.269 403.279 383.928C400.89 383.501 398.245 383.288 395.343 383.288ZM449.814 367.288H469.782V455.992H449.814V367.288Z" fill="white"/>
<defs>
<linearGradient id="paint0_linear_1288_244" x1="294.752" y1="232.322" x2="454.358" y2="520.259" gradientUnits="userSpaceOnUse">
<stop stop-color="#1768E5"/>
<stop offset="1" stop-color="#00F0FF"/>
</linearGradient>
<linearGradient id="paint1_linear_1288_244" x1="356.101" y1="212.761" x2="390.513" y2="540.171" gradientUnits="userSpaceOnUse">
<stop stop-color="#1768E5"/>
<stop offset="1" stop-color="#00F0FF"/>
</linearGradient>
<linearGradient id="paint2_linear_1288_244" x1="420.22" y1="218.727" x2="323.967" y2="533.556" gradientUnits="userSpaceOnUse">
<stop stop-color="#1768E5"/>
<stop offset="1" stop-color="#00F0FF"/>
</linearGradient>
<linearGradient id="paint3_linear_1288_244" x1="476.904" y1="249.271" x2="265.289" y2="501.463" gradientUnits="userSpaceOnUse">
<stop stop-color="#1768E5"/>
<stop offset="1" stop-color="#00F0FF"/>
</linearGradient>
<linearGradient id="paint4_linear_1288_244" x1="517.148" y1="299.536" x2="223.817" y2="448.995" gradientUnits="userSpaceOnUse">
<stop stop-color="#1768E5"/>
<stop offset="1" stop-color="#00F0FF"/>
</linearGradient>
<linearGradient id="paint5_linear_1288_244" x1="534.563" y1="361.53" x2="206.151" y2="384.495" gradientUnits="userSpaceOnUse">
<stop stop-color="#1768E5"/>
<stop offset="1" stop-color="#00F0FF"/>
</linearGradient>
<linearGradient id="paint6_linear_1288_244" x1="526.36" y1="425.399" x2="215.083" y2="318.217" gradientUnits="userSpaceOnUse">
<stop stop-color="#1768E5"/>
<stop offset="1" stop-color="#00F0FF"/>
</linearGradient>
<linearGradient id="paint7_linear_1288_244" x1="493.859" y1="480.986" x2="249.205" y2="260.699" gradientUnits="userSpaceOnUse">
<stop stop-color="#1768E5"/>
<stop offset="1" stop-color="#00F0FF"/>
</linearGradient>
<linearGradient id="paint8_linear_1288_244" x1="442.219" y1="519.454" x2="303.087" y2="221.085" gradientUnits="userSpaceOnUse">
<stop stop-color="#1768E5"/>
<stop offset="1" stop-color="#00F0FF"/>
</linearGradient>
<linearGradient id="paint9_linear_1288_244" x1="379.652" y1="534.689" x2="368.162" y2="205.676" gradientUnits="userSpaceOnUse">
<stop stop-color="#1768E5"/>
<stop offset="1" stop-color="#00F0FF"/>
</linearGradient>
<linearGradient id="paint10_linear_1288_244" x1="316.11" y1="524.265" x2="434.09" y2="216.917" gradientUnits="userSpaceOnUse">
<stop stop-color="#1768E5"/>
<stop offset="1" stop-color="#00F0FF"/>
</linearGradient>
<linearGradient id="paint11_linear_1288_244" x1="261.691" y1="489.841" x2="490.382" y2="253.025" gradientUnits="userSpaceOnUse">
<stop stop-color="#1768E5"/>
<stop offset="1" stop-color="#00F0FF"/>
</linearGradient>
<linearGradient id="paint12_linear_1288_244" x1="225.047" y1="436.891" x2="528.09" y2="308.258" gradientUnits="userSpaceOnUse">
<stop stop-color="#1768E5"/>
<stop offset="1" stop-color="#00F0FF"/>
</linearGradient>
<linearGradient id="paint13_linear_1288_244" x1="211.373" y1="374.104" x2="540.863" y2="374.104" gradientUnits="userSpaceOnUse">
<stop stop-color="#1768E5"/>
<stop offset="1" stop-color="#00F0FF"/>
</linearGradient>
</defs>
</svg>
