<svg width="789" height="757" viewBox="0 0 789 757" fill="none" xmlns="http://www.w3.org/2000/svg">
<rect x="169.995" y="367.5" width="309.013" height="309.013" transform="rotate(-45 169.995 367.5)" stroke="white" stroke-width="140" stroke-dasharray="5 0"/>
<rect x="169.995" y="367.5" width="309.013" height="309.013" transform="rotate(-45 169.995 367.5)" stroke="url(#paint0_linear_1551_88)" stroke-width="140" stroke-dasharray="5 0"/>
<path d="M388.92 533.847C330.895 475.822 295.698 440.625 242.446 387.373C242.446 348.465 242.446 387.373 242.446 348.465L388.92 201.991L554.848 367.919L388.92 533.847Z" fill="black"/>
<path d="M337.054 385.448C338.594 385.448 339.854 385.331 340.834 385.098C341.86 384.818 342.677 384.468 343.284 384.048C343.89 383.581 344.31 383.045 344.544 382.438C344.777 381.831 344.894 381.155 344.894 380.408C344.894 378.821 344.147 377.515 342.654 376.488C341.16 375.415 338.594 374.271 334.954 373.058C333.367 372.498 331.78 371.868 330.194 371.168C328.607 370.421 327.184 369.511 325.924 368.438C324.664 367.318 323.637 365.988 322.844 364.448C322.05 362.861 321.654 360.948 321.654 358.708C321.654 356.468 322.074 354.461 322.914 352.688C323.754 350.868 324.944 349.328 326.484 348.068C328.024 346.808 329.89 345.851 332.084 345.198C334.277 344.498 336.75 344.148 339.504 344.148C342.77 344.148 345.594 344.498 347.974 345.198C350.354 345.898 352.314 346.668 353.854 347.508L350.704 356.118C349.35 355.418 347.834 354.811 346.154 354.298C344.52 353.738 342.537 353.458 340.204 353.458C337.59 353.458 335.7 353.831 334.534 354.578C333.414 355.278 332.854 356.375 332.854 357.868C332.854 358.755 333.064 359.501 333.484 360.108C333.904 360.715 334.487 361.275 335.234 361.788C336.027 362.255 336.914 362.698 337.894 363.118C338.92 363.491 340.04 363.888 341.254 364.308C343.774 365.241 345.967 366.175 347.834 367.108C349.7 367.995 351.24 369.045 352.454 370.258C353.714 371.471 354.647 372.895 355.254 374.528C355.86 376.161 356.164 378.145 356.164 380.478C356.164 385.005 354.577 388.528 351.404 391.048C348.23 393.521 343.447 394.758 337.054 394.758C334.907 394.758 332.97 394.618 331.244 394.338C329.517 394.105 327.977 393.801 326.624 393.428C325.317 393.055 324.174 392.658 323.194 392.238C322.26 391.818 321.467 391.421 320.814 391.048L323.894 382.368C325.34 383.161 327.114 383.885 329.214 384.538C331.36 385.145 333.974 385.448 337.054 385.448ZM375.486 384.888C375.999 384.935 376.583 384.981 377.236 385.028C377.936 385.028 378.753 385.028 379.686 385.028C385.146 385.028 389.183 383.651 391.796 380.898C394.456 378.145 395.786 374.341 395.786 369.488C395.786 364.401 394.526 360.551 392.006 357.938C389.486 355.325 385.496 354.018 380.036 354.018C379.289 354.018 378.519 354.041 377.726 354.088C376.933 354.088 376.186 354.135 375.486 354.228V384.888ZM407.056 369.488C407.056 373.688 406.403 377.351 405.096 380.478C403.789 383.605 401.923 386.195 399.496 388.248C397.116 390.301 394.199 391.841 390.746 392.868C387.293 393.895 383.419 394.408 379.126 394.408C377.166 394.408 374.879 394.315 372.266 394.128C369.653 393.988 367.086 393.661 364.566 393.148V345.898C367.086 345.431 369.699 345.128 372.406 344.988C375.159 344.801 377.516 344.708 379.476 344.708C383.629 344.708 387.386 345.175 390.746 346.108C394.153 347.041 397.069 348.511 399.496 350.518C401.923 352.525 403.789 355.091 405.096 358.218C406.403 361.345 407.056 365.101 407.056 369.488ZM444.807 393.778C443.827 392.191 442.661 390.488 441.307 388.668C440.001 386.801 438.554 384.958 436.967 383.138C435.427 381.271 433.817 379.498 432.137 377.818C430.457 376.091 428.777 374.575 427.097 373.268V393.778H416.177V345.268H427.097V363.608C429.944 360.621 432.791 357.518 435.637 354.298C438.531 351.031 441.214 348.021 443.687 345.268H456.637C453.324 349.188 449.987 352.968 446.627 356.608C443.314 360.248 439.814 363.911 436.127 367.598C440.001 370.818 443.734 374.645 447.327 379.078C450.967 383.511 454.444 388.411 457.757 393.778H444.807Z" fill="white"/>
<defs>
<linearGradient id="paint0_linear_1551_88" x1="63.7942" y1="592.471" x2="512.56" y2="592.471" gradientUnits="userSpaceOnUse">
<stop stop-color="#1768E5"/>
<stop offset="1" stop-color="#00F0FF"/>
</linearGradient>
</defs>
</svg>
