<svg width="989" height="989" viewBox="0 0 989 989" fill="none" xmlns="http://www.w3.org/2000/svg">
<g opacity="0.0526316">
<rect x="375.574" y="939.698" width="652.547" height="652.547" transform="rotate(-120 375.574 939.698)" fill="black" stroke="url(#paint0_linear_1551_87)" stroke-width="2.5"/>
<rect x="204.623" y="852.59" width="652.547" height="652.547" transform="rotate(-96 204.623 852.59)" fill="black" stroke="url(#paint1_linear_1551_87)" stroke-width="2.5"/>
<rect x="83.873" y="703.479" width="652.547" height="652.547" transform="rotate(-72 83.873 703.479)" fill="black" stroke="url(#paint2_linear_1551_87)" stroke-width="2.5"/>
</g>
<g opacity="0.105263">
<rect x="214.773" y="840.048" width="629.724" height="629.724" transform="rotate(-96 214.773 840.048)" fill="black" stroke="url(#paint3_linear_1551_87)" stroke-width="2.5"/>
<rect x="98.25" y="696.152" width="629.724" height="629.724" transform="rotate(-72 98.25 696.152)" fill="black" stroke="url(#paint4_linear_1551_87)" stroke-width="2.5"/>
<rect x="50.3281" y="517.304" width="629.724" height="629.724" transform="rotate(-48 50.3281 517.304)" fill="black" stroke="url(#paint5_linear_1551_87)" stroke-width="2.5"/>
</g>
<g opacity="0.157895">
<rect x="112.627" y="688.826" width="606.901" height="606.901" transform="rotate(-72 112.627 688.826)" fill="black" stroke="url(#paint6_linear_1551_87)" stroke-width="2.5"/>
<rect x="66.4434" y="516.46" width="606.901" height="606.901" transform="rotate(-48 66.4434 516.46)" fill="black" stroke="url(#paint7_linear_1551_87)" stroke-width="2.5"/>
<rect x="94.3613" y="340.21" width="606.901" height="606.901" transform="rotate(-24 94.3613 340.21)" fill="black" stroke="url(#paint8_linear_1551_87)" stroke-width="2.5"/>
</g>
<g opacity="0.210526">
<rect x="82.5566" y="515.614" width="584.078" height="584.078" transform="rotate(-48 82.5566 515.614)" fill="black" stroke="url(#paint9_linear_1551_87)" stroke-width="2.5"/>
<rect x="109.426" y="345.992" width="584.078" height="584.078" transform="rotate(-24 109.426 345.992)" fill="black" stroke="url(#paint10_linear_1551_87)" stroke-width="2.5"/>
<rect x="202.959" y="201.961" width="584.078" height="584.078" fill="black" stroke="url(#paint11_linear_1551_87)" stroke-width="2.5"/>
</g>
<g opacity="0.263158">
<rect x="124.488" y="351.775" width="561.256" height="561.256" transform="rotate(-24 124.488 351.775)" fill="black" stroke="url(#paint12_linear_1551_87)" stroke-width="2.5"/>
<rect x="214.369" y="213.375" width="561.256" height="561.256" fill="black" stroke="url(#paint13_linear_1551_87)" stroke-width="2.5"/>
<rect x="352.775" y="123.495" width="561.256" height="561.256" transform="rotate(24 352.775 123.495)" fill="black" stroke="url(#paint14_linear_1551_87)" stroke-width="2.5"/>
</g>
<g opacity="0.315789">
<rect x="225.775" y="224.781" width="538.433" height="538.433" fill="black" stroke="url(#paint15_linear_1551_87)" stroke-width="2.5"/>
<rect x="358.555" y="138.557" width="538.433" height="538.433" transform="rotate(24 358.555 138.557)" fill="black" stroke="url(#paint16_linear_1551_87)" stroke-width="2.5"/>
<rect x="514.918" y="113.792" width="538.433" height="538.433" transform="rotate(48 514.918 113.792)" fill="black" stroke="url(#paint17_linear_1551_87)" stroke-width="2.5"/>
</g>
<g opacity="0.368421">
<rect x="364.344" y="153.625" width="515.611" height="515.611" transform="rotate(24 364.344 153.625)" fill="black" stroke="url(#paint18_linear_1551_87)" stroke-width="2.5"/>
<rect x="514.078" y="129.91" width="515.611" height="515.611" transform="rotate(48 514.078 129.91)" fill="black" stroke="url(#paint19_linear_1551_87)" stroke-width="2.5"/>
<rect x="660.52" y="169.148" width="515.611" height="515.611" transform="rotate(72 660.52 169.148)" fill="black" stroke="url(#paint20_linear_1551_87)" stroke-width="2.5"/>
</g>
<g opacity="0.421053">
<rect x="513.234" y="146.025" width="492.788" height="492.788" transform="rotate(48 513.234 146.025)" fill="black" stroke="url(#paint21_linear_1551_87)" stroke-width="2.5"/>
<rect x="653.193" y="183.527" width="492.788" height="492.788" transform="rotate(72 653.193 183.527)" fill="black" stroke="url(#paint22_linear_1551_87)" stroke-width="2.5"/>
<rect x="765.797" y="274.712" width="492.788" height="492.788" transform="rotate(96 765.797 274.712)" fill="black" stroke="url(#paint23_linear_1551_87)" stroke-width="2.5"/>
</g>
<g opacity="0.473684">
<rect x="645.865" y="197.905" width="469.965" height="469.965" transform="rotate(72 645.865 197.905)" fill="black" stroke="url(#paint24_linear_1551_87)" stroke-width="2.5"/>
<rect x="753.25" y="284.868" width="469.965" height="469.965" transform="rotate(96 753.25 284.868)" fill="black" stroke="url(#paint25_linear_1551_87)" stroke-width="2.5"/>
<rect x="815.982" y="407.99" width="469.965" height="469.965" transform="rotate(120 815.982 407.99)" fill="black" stroke="url(#paint26_linear_1551_87)" stroke-width="2.5"/>
</g>
<g opacity="0.526316">
<rect x="740.715" y="295.023" width="447.143" height="447.143" transform="rotate(96 740.715 295.023)" fill="black" stroke="url(#paint27_linear_1551_87)" stroke-width="2.5"/>
<rect x="800.404" y="412.167" width="447.143" height="447.143" transform="rotate(120 800.404 412.167)" fill="black" stroke="url(#paint28_linear_1551_87)" stroke-width="2.5"/>
<rect x="807.283" y="543.46" width="447.143" height="447.143" transform="rotate(144 807.283 543.46)" fill="black" stroke="url(#paint29_linear_1551_87)" stroke-width="2.5"/>
</g>
<g opacity="0.578947">
<rect x="784.816" y="416.345" width="424.32" height="424.32" transform="rotate(120 784.816 416.345)" fill="black" stroke="url(#paint30_linear_1551_87)" stroke-width="2.5"/>
<rect x="791.342" y="540.937" width="424.32" height="424.32" transform="rotate(144 791.342 540.937)" fill="black" stroke="url(#paint31_linear_1551_87)" stroke-width="2.5"/>
<rect x="746.635" y="657.414" width="424.32" height="424.32" transform="rotate(168 746.635 657.414)" fill="black" stroke="url(#paint32_linear_1551_87)" stroke-width="2.5"/>
</g>
<g opacity="0.631579">
<rect x="775.406" y="538.412" width="401.497" height="401.497" transform="rotate(144 775.406 538.412)" fill="black" stroke="url(#paint33_linear_1551_87)" stroke-width="2.5"/>
<rect x="733.1" y="648.624" width="401.497" height="401.497" transform="rotate(168 733.1 648.624)" fill="black" stroke="url(#paint34_linear_1551_87)" stroke-width="2.5"/>
<rect x="649.617" y="732.099" width="401.497" height="401.497" transform="rotate(-168 649.617 732.099)" fill="black" stroke="url(#paint35_linear_1551_87)" stroke-width="2.5"/>
</g>
<g opacity="0.684211">
<rect x="719.564" y="639.833" width="378.675" height="378.675" transform="rotate(168 719.564 639.833)" fill="black" stroke="url(#paint36_linear_1551_87)" stroke-width="2.5"/>
<rect x="640.832" y="718.563" width="378.675" height="378.675" transform="rotate(-168 640.832 718.563)" fill="black" stroke="url(#paint37_linear_1551_87)" stroke-width="2.5"/>
<rect x="536.887" y="758.465" width="378.675" height="378.675" transform="rotate(-144 536.887 758.465)" fill="black" stroke="url(#paint38_linear_1551_87)" stroke-width="2.5"/>
</g>
<g opacity="0.736842">
<rect x="632.041" y="705.032" width="355.852" height="355.852" transform="rotate(-168 632.041 705.032)" fill="black" stroke="url(#paint39_linear_1551_87)" stroke-width="2.5"/>
<rect x="534.361" y="742.527" width="355.852" height="355.852" transform="rotate(-144 534.361 742.527)" fill="black" stroke="url(#paint40_linear_1551_87)" stroke-width="2.5"/>
<rect x="429.873" y="737.052" width="355.852" height="355.852" transform="rotate(-120 429.873 737.052)" fill="black" stroke="url(#paint41_linear_1551_87)" stroke-width="2.5"/>
</g>
<g opacity="0.789474">
<rect x="531.834" y="726.589" width="333.03" height="333.03" transform="rotate(-144 531.834 726.589)" fill="black" stroke="url(#paint42_linear_1551_87)" stroke-width="2.5"/>
<rect x="434.045" y="721.463" width="333.029" height="333.029" transform="rotate(-120 434.045 721.463)" fill="black" stroke="url(#paint43_linear_1551_87)" stroke-width="2.5"/>
<rect x="346.797" y="677.007" width="333.03" height="333.03" transform="rotate(-96 346.797 677.007)" fill="black" stroke="url(#paint44_linear_1551_87)" stroke-width="2.5"/>
</g>
<g opacity="0.842105">
<rect x="438.227" y="705.875" width="310.207" height="310.207" transform="rotate(-120 438.227 705.875)" fill="black" stroke="url(#paint45_linear_1551_87)" stroke-width="2.5"/>
<rect x="356.959" y="664.465" width="310.207" height="310.207" transform="rotate(-96 356.959 664.465)" fill="black" stroke="url(#paint46_linear_1551_87)" stroke-width="2.5"/>
<rect x="299.557" y="593.581" width="310.207" height="310.207" transform="rotate(-72 299.557 593.581)" fill="black" stroke="url(#paint47_linear_1551_87)" stroke-width="2.5"/>
</g>
<g opacity="0.894737">
<rect x="367.115" y="651.926" width="287.384" height="287.384" transform="rotate(-96 367.115 651.926)" fill="black" stroke="url(#paint48_linear_1551_87)" stroke-width="2.5"/>
<rect x="313.939" y="586.257" width="287.384" height="287.384" transform="rotate(-72 313.939 586.257)" fill="black" stroke="url(#paint49_linear_1551_87)" stroke-width="2.5"/>
<rect x="292.07" y="504.637" width="287.384" height="287.384" transform="rotate(-48 292.07 504.637)" fill="black" stroke="url(#paint50_linear_1551_87)" stroke-width="2.5"/>
</g>
<g opacity="0.947368">
<rect x="328.316" y="578.929" width="264.562" height="264.562" transform="rotate(-72 328.316 578.929)" fill="black" stroke="url(#paint51_linear_1551_87)" stroke-width="2.5"/>
<rect x="308.186" y="503.79" width="264.562" height="264.562" transform="rotate(-48 308.186 503.79)" fill="black" stroke="url(#paint52_linear_1551_87)" stroke-width="2.5"/>
<rect x="320.352" y="426.958" width="264.562" height="264.562" transform="rotate(-24 320.352 426.958)" fill="black" stroke="url(#paint53_linear_1551_87)" stroke-width="2.5"/>
</g>
<rect x="324.295" y="502.945" width="241.739" height="241.739" transform="rotate(-48 324.295 502.945)" fill="black" stroke="url(#paint54_linear_1551_87)" stroke-width="2.5"/>
<rect x="335.418" y="432.742" width="241.739" height="241.739" transform="rotate(-24 335.418 432.742)" fill="black" stroke="url(#paint55_linear_1551_87)" stroke-width="2.5"/>
<rect x="374.125" y="373.13" width="241.739" height="241.739" fill="black" stroke="url(#paint56_linear_1551_87)" stroke-width="2.5"/>
<path d="M443.571 441.884C443.955 443.196 444.371 444.684 444.819 446.348C445.299 447.98 445.795 449.676 446.307 451.436C446.851 453.196 447.395 454.956 447.939 456.716C448.483 458.476 449.011 460.108 449.523 461.612C449.939 459.98 450.355 458.204 450.771 456.284C451.219 454.364 451.635 452.38 452.019 450.332C452.403 448.284 452.771 446.252 453.123 444.236C453.507 442.188 453.859 440.22 454.179 438.332H461.955C460.835 443.9 459.539 449.548 458.067 455.276C456.627 461.004 455.059 466.444 453.363 471.596H446.499C445.379 468.524 444.291 465.308 443.235 461.948C442.179 458.556 441.139 455.164 440.115 451.772C439.091 455.164 438.067 458.556 437.043 461.948C436.019 465.308 434.947 468.524 433.827 471.596H426.963C425.267 466.444 423.683 461.004 422.211 455.276C420.771 449.548 419.491 443.9 418.371 438.332H426.483C426.803 440.22 427.155 442.188 427.539 444.236C427.923 446.252 428.323 448.284 428.739 450.332C429.155 452.38 429.571 454.364 429.987 456.284C430.435 458.204 430.883 459.98 431.331 461.612C431.907 460.044 432.467 458.38 433.011 456.62C433.555 454.86 434.083 453.1 434.595 451.34C435.107 449.58 435.571 447.884 435.987 446.252C436.435 444.62 436.835 443.164 437.187 441.884H443.571ZM487.116 471.596C486.764 470.444 486.364 469.26 485.916 468.044C485.5 466.828 485.084 465.612 484.668 464.396H471.708C471.292 465.612 470.86 466.828 470.412 468.044C469.996 469.26 469.612 470.444 469.26 471.596H461.484C462.732 468.012 463.916 464.7 465.036 461.66C466.156 458.62 467.244 455.756 468.3 453.068C469.388 450.38 470.444 447.836 471.468 445.436C472.524 443.004 473.612 440.636 474.732 438.332H481.884C482.972 440.636 484.044 443.004 485.1 445.436C486.156 447.836 487.212 450.38 488.268 453.068C489.356 455.756 490.46 458.62 491.58 461.66C492.7 464.7 493.884 468.012 495.132 471.596H487.116ZM478.14 445.868C477.98 446.348 477.74 447.004 477.42 447.836C477.1 448.668 476.732 449.628 476.316 450.716C475.9 451.804 475.436 453.004 474.924 454.316C474.444 455.628 473.948 457.004 473.436 458.444H482.892C482.38 457.004 481.884 455.628 481.404 454.316C480.924 453.004 480.46 451.804 480.012 450.716C479.596 449.628 479.228 448.668 478.908 447.836C478.588 447.004 478.332 446.348 478.14 445.868ZM509.401 465.884C510.457 465.884 511.321 465.804 511.993 465.644C512.697 465.452 513.257 465.212 513.673 464.924C514.089 464.604 514.377 464.236 514.537 463.82C514.697 463.404 514.777 462.94 514.777 462.428C514.777 461.34 514.265 460.444 513.241 459.74C512.217 459.004 510.457 458.22 507.961 457.388C506.873 457.004 505.785 456.572 504.697 456.092C503.609 455.58 502.633 454.956 501.769 454.22C500.905 453.452 500.201 452.54 499.657 451.484C499.113 450.396 498.841 449.084 498.841 447.548C498.841 446.012 499.129 444.636 499.705 443.42C500.281 442.172 501.097 441.116 502.153 440.252C503.209 439.388 504.489 438.732 505.993 438.284C507.497 437.804 509.193 437.564 511.081 437.564C513.321 437.564 515.257 437.804 516.889 438.284C518.521 438.764 519.865 439.292 520.921 439.868L518.761 445.772C517.833 445.292 516.793 444.876 515.641 444.524C514.521 444.14 513.161 443.948 511.561 443.948C509.769 443.948 508.473 444.204 507.673 444.716C506.905 445.196 506.521 445.948 506.521 446.972C506.521 447.58 506.665 448.092 506.953 448.508C507.241 448.924 507.641 449.308 508.153 449.66C508.697 449.98 509.305 450.284 509.977 450.572C510.681 450.828 511.449 451.1 512.281 451.388C514.009 452.028 515.513 452.668 516.793 453.308C518.073 453.916 519.129 454.636 519.961 455.468C520.825 456.3 521.465 457.276 521.881 458.396C522.297 459.516 522.505 460.876 522.505 462.476C522.505 465.58 521.417 467.996 519.241 469.724C517.065 471.42 513.785 472.268 509.401 472.268C507.929 472.268 506.601 472.172 505.417 471.98C504.233 471.82 503.177 471.612 502.249 471.356C501.353 471.1 500.569 470.828 499.897 470.54C499.257 470.252 498.713 469.98 498.265 469.724L500.377 463.772C501.369 464.316 502.585 464.812 504.025 465.26C505.497 465.676 507.289 465.884 509.401 465.884ZM537.098 438.332C537.674 439.388 538.33 440.7 539.066 442.268C539.834 443.804 540.618 445.484 541.418 447.308C542.25 449.1 543.066 450.94 543.866 452.828C544.666 454.716 545.418 456.492 546.122 458.156C546.826 456.492 547.578 454.716 548.378 452.828C549.178 450.94 549.978 449.1 550.778 447.308C551.61 445.484 552.394 443.804 553.13 442.268C553.898 440.7 554.57 439.388 555.146 438.332H561.962C562.282 440.54 562.57 443.02 562.826 445.772C563.114 448.492 563.354 451.34 563.546 454.316C563.77 457.26 563.962 460.22 564.122 463.196C564.314 466.172 564.474 468.972 564.602 471.596H557.306C557.21 468.364 557.082 464.844 556.922 461.036C556.762 457.228 556.522 453.388 556.202 449.516C555.626 450.86 554.986 452.348 554.282 453.98C553.578 455.612 552.874 457.244 552.17 458.876C551.498 460.508 550.842 462.076 550.202 463.58C549.562 465.052 549.018 466.316 548.57 467.372H543.338C542.89 466.316 542.346 465.052 541.706 463.58C541.066 462.076 540.394 460.508 539.69 458.876C539.018 457.244 538.33 455.612 537.626 453.98C536.922 452.348 536.282 450.86 535.706 449.516C535.386 453.388 535.146 457.228 534.986 461.036C534.826 464.844 534.698 468.364 534.602 471.596H527.306C527.434 468.972 527.578 466.172 527.738 463.196C527.93 460.22 528.122 457.26 528.314 454.316C528.538 451.34 528.778 448.492 529.034 445.772C529.322 443.02 529.626 440.54 529.946 438.332H537.098ZM448.888 548.596C446.592 543.724 444.324 538.656 442.084 533.392C439.844 528.128 437.716 522.92 435.7 517.768C433.684 512.616 431.808 507.688 430.072 502.984C428.392 498.28 426.936 494.08 425.704 490.384H440.152C441.272 493.744 442.476 497.384 443.764 501.304C445.108 505.168 446.452 509.032 447.796 512.896C449.196 516.76 450.54 520.456 451.828 523.984C453.116 527.512 454.32 530.564 455.44 533.14C456.504 530.564 457.68 527.512 458.968 523.984C460.312 520.456 461.656 516.76 463 512.896C464.4 509.032 465.744 505.168 467.032 501.304C468.376 497.384 469.608 493.744 470.728 490.384H484.672C483.384 494.08 481.9 498.28 480.22 502.984C478.54 507.688 476.692 512.616 474.676 517.768C472.66 522.92 470.532 528.128 468.292 533.392C466.052 538.656 463.784 543.724 461.488 548.596H448.888ZM506.841 490.384C507.849 492.232 508.997 494.528 510.285 497.272C511.629 499.96 513.001 502.9 514.401 506.092C515.857 509.228 517.285 512.448 518.685 515.752C520.085 519.056 521.401 522.164 522.633 525.076C523.865 522.164 525.181 519.056 526.581 515.752C527.981 512.448 529.381 509.228 530.781 506.092C532.237 502.9 533.609 499.96 534.897 497.272C536.241 494.528 537.417 492.232 538.425 490.384H550.353C550.913 494.248 551.417 498.588 551.865 503.404C552.369 508.164 552.789 513.148 553.125 518.356C553.517 523.508 553.853 528.688 554.133 533.896C554.469 539.104 554.749 544.004 554.973 548.596H542.205C542.037 542.94 541.813 536.78 541.533 530.116C541.253 523.452 540.833 516.732 540.273 509.956C539.265 512.308 538.145 514.912 536.913 517.768C535.681 520.624 534.449 523.48 533.217 526.336C532.041 529.192 530.893 531.936 529.773 534.568C528.653 537.144 527.701 539.356 526.917 541.204H517.761C516.977 539.356 516.025 537.144 514.905 534.568C513.785 531.936 512.609 529.192 511.377 526.336C510.201 523.48 508.997 520.624 507.765 517.768C506.533 514.912 505.413 512.308 504.405 509.956C503.845 516.732 503.425 523.452 503.145 530.116C502.865 536.78 502.641 542.94 502.473 548.596H489.705C489.929 544.004 490.181 539.104 490.461 533.896C490.797 528.688 491.133 523.508 491.469 518.356C491.861 513.148 492.281 508.164 492.729 503.404C493.233 498.588 493.765 494.248 494.325 490.384H506.841Z" fill="white"/>
<defs>
<linearGradient id="paint0_linear_1551_87" x1="375.574" y1="1265.97" x2="1028.12" y2="1265.97" gradientUnits="userSpaceOnUse">
<stop stop-color="#00F0FF"/>
<stop offset="1" stop-color="#1768E5"/>
</linearGradient>
<linearGradient id="paint1_linear_1551_87" x1="204.623" y1="1178.86" x2="857.17" y2="1178.86" gradientUnits="userSpaceOnUse">
<stop stop-color="#00F0FF"/>
<stop offset="1" stop-color="#1768E5"/>
</linearGradient>
<linearGradient id="paint2_linear_1551_87" x1="83.873" y1="1029.75" x2="736.42" y2="1029.75" gradientUnits="userSpaceOnUse">
<stop stop-color="#00F0FF"/>
<stop offset="1" stop-color="#1768E5"/>
</linearGradient>
<linearGradient id="paint3_linear_1551_87" x1="214.773" y1="1154.91" x2="844.497" y2="1154.91" gradientUnits="userSpaceOnUse">
<stop stop-color="#00F0FF"/>
<stop offset="1" stop-color="#1768E5"/>
</linearGradient>
<linearGradient id="paint4_linear_1551_87" x1="98.25" y1="1011.01" x2="727.974" y2="1011.01" gradientUnits="userSpaceOnUse">
<stop stop-color="#00F0FF"/>
<stop offset="1" stop-color="#1768E5"/>
</linearGradient>
<linearGradient id="paint5_linear_1551_87" x1="50.3281" y1="832.166" x2="680.052" y2="832.166" gradientUnits="userSpaceOnUse">
<stop stop-color="#00F0FF"/>
<stop offset="1" stop-color="#1768E5"/>
</linearGradient>
<linearGradient id="paint6_linear_1551_87" x1="112.627" y1="992.277" x2="719.528" y2="992.277" gradientUnits="userSpaceOnUse">
<stop stop-color="#00F0FF"/>
<stop offset="1" stop-color="#1768E5"/>
</linearGradient>
<linearGradient id="paint7_linear_1551_87" x1="66.4434" y1="819.911" x2="673.345" y2="819.911" gradientUnits="userSpaceOnUse">
<stop stop-color="#00F0FF"/>
<stop offset="1" stop-color="#1768E5"/>
</linearGradient>
<linearGradient id="paint8_linear_1551_87" x1="94.3613" y1="643.661" x2="701.263" y2="643.661" gradientUnits="userSpaceOnUse">
<stop stop-color="#00F0FF"/>
<stop offset="1" stop-color="#1768E5"/>
</linearGradient>
<linearGradient id="paint9_linear_1551_87" x1="82.5566" y1="807.653" x2="666.635" y2="807.653" gradientUnits="userSpaceOnUse">
<stop stop-color="#00F0FF"/>
<stop offset="1" stop-color="#1768E5"/>
</linearGradient>
<linearGradient id="paint10_linear_1551_87" x1="109.426" y1="638.031" x2="693.504" y2="638.031" gradientUnits="userSpaceOnUse">
<stop stop-color="#00F0FF"/>
<stop offset="1" stop-color="#1768E5"/>
</linearGradient>
<linearGradient id="paint11_linear_1551_87" x1="202.959" y1="494" x2="787.037" y2="494" gradientUnits="userSpaceOnUse">
<stop stop-color="#00F0FF"/>
<stop offset="1" stop-color="#1768E5"/>
</linearGradient>
<linearGradient id="paint12_linear_1551_87" x1="124.488" y1="632.403" x2="685.744" y2="632.403" gradientUnits="userSpaceOnUse">
<stop stop-color="#00F0FF"/>
<stop offset="1" stop-color="#1768E5"/>
</linearGradient>
<linearGradient id="paint13_linear_1551_87" x1="214.369" y1="494.002" x2="775.625" y2="494.002" gradientUnits="userSpaceOnUse">
<stop stop-color="#00F0FF"/>
<stop offset="1" stop-color="#1768E5"/>
</linearGradient>
<linearGradient id="paint14_linear_1551_87" x1="352.775" y1="404.123" x2="914.031" y2="404.123" gradientUnits="userSpaceOnUse">
<stop stop-color="#00F0FF"/>
<stop offset="1" stop-color="#1768E5"/>
</linearGradient>
<linearGradient id="paint15_linear_1551_87" x1="225.775" y1="493.997" x2="764.209" y2="493.997" gradientUnits="userSpaceOnUse">
<stop stop-color="#00F0FF"/>
<stop offset="1" stop-color="#1768E5"/>
</linearGradient>
<linearGradient id="paint16_linear_1551_87" x1="358.555" y1="407.774" x2="896.988" y2="407.774" gradientUnits="userSpaceOnUse">
<stop stop-color="#00F0FF"/>
<stop offset="1" stop-color="#1768E5"/>
</linearGradient>
<linearGradient id="paint17_linear_1551_87" x1="514.918" y1="383.008" x2="1053.35" y2="383.008" gradientUnits="userSpaceOnUse">
<stop stop-color="#00F0FF"/>
<stop offset="1" stop-color="#1768E5"/>
</linearGradient>
<linearGradient id="paint18_linear_1551_87" x1="364.344" y1="411.43" x2="879.955" y2="411.43" gradientUnits="userSpaceOnUse">
<stop stop-color="#00F0FF"/>
<stop offset="1" stop-color="#1768E5"/>
</linearGradient>
<linearGradient id="paint19_linear_1551_87" x1="514.078" y1="387.715" x2="1029.69" y2="387.715" gradientUnits="userSpaceOnUse">
<stop stop-color="#00F0FF"/>
<stop offset="1" stop-color="#1768E5"/>
</linearGradient>
<linearGradient id="paint20_linear_1551_87" x1="660.52" y1="426.953" x2="1176.13" y2="426.953" gradientUnits="userSpaceOnUse">
<stop stop-color="#00F0FF"/>
<stop offset="1" stop-color="#1768E5"/>
</linearGradient>
<linearGradient id="paint21_linear_1551_87" x1="513.234" y1="392.419" x2="1006.02" y2="392.419" gradientUnits="userSpaceOnUse">
<stop stop-color="#00F0FF"/>
<stop offset="1" stop-color="#1768E5"/>
</linearGradient>
<linearGradient id="paint22_linear_1551_87" x1="653.193" y1="429.921" x2="1145.98" y2="429.921" gradientUnits="userSpaceOnUse">
<stop stop-color="#00F0FF"/>
<stop offset="1" stop-color="#1768E5"/>
</linearGradient>
<linearGradient id="paint23_linear_1551_87" x1="765.797" y1="521.106" x2="1258.58" y2="521.106" gradientUnits="userSpaceOnUse">
<stop stop-color="#00F0FF"/>
<stop offset="1" stop-color="#1768E5"/>
</linearGradient>
<linearGradient id="paint24_linear_1551_87" x1="645.865" y1="432.888" x2="1115.83" y2="432.888" gradientUnits="userSpaceOnUse">
<stop stop-color="#00F0FF"/>
<stop offset="1" stop-color="#1768E5"/>
</linearGradient>
<linearGradient id="paint25_linear_1551_87" x1="753.25" y1="519.85" x2="1223.22" y2="519.85" gradientUnits="userSpaceOnUse">
<stop stop-color="#00F0FF"/>
<stop offset="1" stop-color="#1768E5"/>
</linearGradient>
<linearGradient id="paint26_linear_1551_87" x1="815.982" y1="642.973" x2="1285.95" y2="642.973" gradientUnits="userSpaceOnUse">
<stop stop-color="#00F0FF"/>
<stop offset="1" stop-color="#1768E5"/>
</linearGradient>
<linearGradient id="paint27_linear_1551_87" x1="740.715" y1="518.594" x2="1187.86" y2="518.594" gradientUnits="userSpaceOnUse">
<stop stop-color="#00F0FF"/>
<stop offset="1" stop-color="#1768E5"/>
</linearGradient>
<linearGradient id="paint28_linear_1551_87" x1="800.404" y1="635.738" x2="1247.55" y2="635.738" gradientUnits="userSpaceOnUse">
<stop stop-color="#00F0FF"/>
<stop offset="1" stop-color="#1768E5"/>
</linearGradient>
<linearGradient id="paint29_linear_1551_87" x1="807.283" y1="767.032" x2="1254.43" y2="767.032" gradientUnits="userSpaceOnUse">
<stop stop-color="#00F0FF"/>
<stop offset="1" stop-color="#1768E5"/>
</linearGradient>
<linearGradient id="paint30_linear_1551_87" x1="784.816" y1="628.505" x2="1209.14" y2="628.505" gradientUnits="userSpaceOnUse">
<stop stop-color="#00F0FF"/>
<stop offset="1" stop-color="#1768E5"/>
</linearGradient>
<linearGradient id="paint31_linear_1551_87" x1="791.342" y1="753.097" x2="1215.66" y2="753.097" gradientUnits="userSpaceOnUse">
<stop stop-color="#00F0FF"/>
<stop offset="1" stop-color="#1768E5"/>
</linearGradient>
<linearGradient id="paint32_linear_1551_87" x1="746.635" y1="869.574" x2="1170.95" y2="869.574" gradientUnits="userSpaceOnUse">
<stop stop-color="#00F0FF"/>
<stop offset="1" stop-color="#1768E5"/>
</linearGradient>
<linearGradient id="paint33_linear_1551_87" x1="775.406" y1="739.161" x2="1176.9" y2="739.161" gradientUnits="userSpaceOnUse">
<stop stop-color="#00F0FF"/>
<stop offset="1" stop-color="#1768E5"/>
</linearGradient>
<linearGradient id="paint34_linear_1551_87" x1="733.1" y1="849.372" x2="1134.6" y2="849.372" gradientUnits="userSpaceOnUse">
<stop stop-color="#00F0FF"/>
<stop offset="1" stop-color="#1768E5"/>
</linearGradient>
<linearGradient id="paint35_linear_1551_87" x1="649.617" y1="932.848" x2="1051.11" y2="932.848" gradientUnits="userSpaceOnUse">
<stop stop-color="#00F0FF"/>
<stop offset="1" stop-color="#1768E5"/>
</linearGradient>
<linearGradient id="paint36_linear_1551_87" x1="719.564" y1="829.171" x2="1098.24" y2="829.171" gradientUnits="userSpaceOnUse">
<stop stop-color="#00F0FF"/>
<stop offset="1" stop-color="#1768E5"/>
</linearGradient>
<linearGradient id="paint37_linear_1551_87" x1="640.832" y1="907.9" x2="1019.51" y2="907.9" gradientUnits="userSpaceOnUse">
<stop stop-color="#00F0FF"/>
<stop offset="1" stop-color="#1768E5"/>
</linearGradient>
<linearGradient id="paint38_linear_1551_87" x1="536.887" y1="947.803" x2="915.561" y2="947.803" gradientUnits="userSpaceOnUse">
<stop stop-color="#00F0FF"/>
<stop offset="1" stop-color="#1768E5"/>
</linearGradient>
<linearGradient id="paint39_linear_1551_87" x1="632.041" y1="882.958" x2="987.893" y2="882.958" gradientUnits="userSpaceOnUse">
<stop stop-color="#00F0FF"/>
<stop offset="1" stop-color="#1768E5"/>
</linearGradient>
<linearGradient id="paint40_linear_1551_87" x1="534.361" y1="920.453" x2="890.214" y2="920.453" gradientUnits="userSpaceOnUse">
<stop stop-color="#00F0FF"/>
<stop offset="1" stop-color="#1768E5"/>
</linearGradient>
<linearGradient id="paint41_linear_1551_87" x1="429.873" y1="914.978" x2="785.725" y2="914.978" gradientUnits="userSpaceOnUse">
<stop stop-color="#00F0FF"/>
<stop offset="1" stop-color="#1768E5"/>
</linearGradient>
<linearGradient id="paint42_linear_1551_87" x1="531.834" y1="893.104" x2="864.864" y2="893.104" gradientUnits="userSpaceOnUse">
<stop stop-color="#00F0FF"/>
<stop offset="1" stop-color="#1768E5"/>
</linearGradient>
<linearGradient id="paint43_linear_1551_87" x1="434.045" y1="887.978" x2="767.074" y2="887.978" gradientUnits="userSpaceOnUse">
<stop stop-color="#00F0FF"/>
<stop offset="1" stop-color="#1768E5"/>
</linearGradient>
<linearGradient id="paint44_linear_1551_87" x1="346.797" y1="843.522" x2="679.826" y2="843.522" gradientUnits="userSpaceOnUse">
<stop stop-color="#00F0FF"/>
<stop offset="1" stop-color="#1768E5"/>
</linearGradient>
<linearGradient id="paint45_linear_1551_87" x1="438.227" y1="860.978" x2="748.434" y2="860.978" gradientUnits="userSpaceOnUse">
<stop stop-color="#00F0FF"/>
<stop offset="1" stop-color="#1768E5"/>
</linearGradient>
<linearGradient id="paint46_linear_1551_87" x1="356.959" y1="819.569" x2="667.166" y2="819.569" gradientUnits="userSpaceOnUse">
<stop stop-color="#00F0FF"/>
<stop offset="1" stop-color="#1768E5"/>
</linearGradient>
<linearGradient id="paint47_linear_1551_87" x1="299.557" y1="748.684" x2="609.764" y2="748.684" gradientUnits="userSpaceOnUse">
<stop stop-color="#00F0FF"/>
<stop offset="1" stop-color="#1768E5"/>
</linearGradient>
<linearGradient id="paint48_linear_1551_87" x1="367.115" y1="795.618" x2="654.499" y2="795.618" gradientUnits="userSpaceOnUse">
<stop stop-color="#00F0FF"/>
<stop offset="1" stop-color="#1768E5"/>
</linearGradient>
<linearGradient id="paint49_linear_1551_87" x1="313.939" y1="729.949" x2="601.324" y2="729.949" gradientUnits="userSpaceOnUse">
<stop stop-color="#00F0FF"/>
<stop offset="1" stop-color="#1768E5"/>
</linearGradient>
<linearGradient id="paint50_linear_1551_87" x1="292.07" y1="648.329" x2="579.455" y2="648.329" gradientUnits="userSpaceOnUse">
<stop stop-color="#00F0FF"/>
<stop offset="1" stop-color="#1768E5"/>
</linearGradient>
<linearGradient id="paint51_linear_1551_87" x1="328.316" y1="711.21" x2="592.878" y2="711.21" gradientUnits="userSpaceOnUse">
<stop stop-color="#00F0FF"/>
<stop offset="1" stop-color="#1768E5"/>
</linearGradient>
<linearGradient id="paint52_linear_1551_87" x1="308.186" y1="636.071" x2="572.747" y2="636.071" gradientUnits="userSpaceOnUse">
<stop stop-color="#00F0FF"/>
<stop offset="1" stop-color="#1768E5"/>
</linearGradient>
<linearGradient id="paint53_linear_1551_87" x1="320.352" y1="559.239" x2="584.913" y2="559.239" gradientUnits="userSpaceOnUse">
<stop stop-color="#00F0FF"/>
<stop offset="1" stop-color="#1768E5"/>
</linearGradient>
<linearGradient id="paint54_linear_1551_87" x1="324.295" y1="623.815" x2="566.034" y2="623.815" gradientUnits="userSpaceOnUse">
<stop stop-color="#00F0FF"/>
<stop offset="1" stop-color="#1768E5"/>
</linearGradient>
<linearGradient id="paint55_linear_1551_87" x1="335.418" y1="553.611" x2="577.157" y2="553.611" gradientUnits="userSpaceOnUse">
<stop stop-color="#00F0FF"/>
<stop offset="1" stop-color="#1768E5"/>
</linearGradient>
<linearGradient id="paint56_linear_1551_87" x1="374.125" y1="493.999" x2="615.864" y2="493.999" gradientUnits="userSpaceOnUse">
<stop stop-color="#00F0FF"/>
<stop offset="1" stop-color="#1768E5"/>
</linearGradient>
</defs>
</svg>
