<svg width="926" height="925" viewBox="0 0 926 925" fill="none" xmlns="http://www.w3.org/2000/svg">
<path opacity="0.0714286" d="M704.07 298.218C721.058 307.114 731.121 325.268 729.663 344.39L705.484 661.492C703.8 683.579 687.221 701.645 665.359 705.215L374.83 752.658C354.832 755.923 334.937 746.279 325.113 728.556L163.9 437.719C154.076 419.997 156.439 398.014 169.806 382.784L363.997 161.543C378.609 144.895 402.716 140.408 422.339 150.685L704.07 298.218Z" stroke="url(#paint0_linear_1288_244)" stroke-width="4"/>
<path opacity="0.142857" d="M748.974 405.641C761.136 420.468 763.306 441.111 754.492 458.143L608.334 740.589C598.153 760.262 575.833 770.414 554.314 765.158L268.344 695.311C248.659 690.503 234.114 673.851 231.996 653.699L197.237 322.992C195.119 302.839 205.884 283.527 224.139 274.732L489.338 146.954C509.294 137.339 533.237 142.629 547.286 159.755L748.974 405.641Z" stroke="url(#paint1_linear_1288_244)" stroke-width="4"/>
<path opacity="0.214286" d="M748.341 522.073C753.743 540.474 747.674 560.323 732.907 572.557L488.006 775.442C470.948 789.573 446.436 790.197 428.681 776.951L192.736 600.918C176.494 588.801 169.612 567.79 175.536 548.412L272.758 230.413C278.683 211.035 296.138 197.465 316.378 196.501L610.422 182.503C632.548 181.449 652.522 195.674 658.761 216.928L748.341 522.073Z" stroke="url(#paint2_linear_1288_244)" stroke-width="4"/>
<path opacity="0.285714" d="M702.257 629C700.04 648.048 686.698 663.949 668.324 669.44L363.619 760.506C342.395 766.849 319.587 757.845 308.42 738.715L160.012 484.485C149.797 466.985 151.671 444.955 164.696 429.432L378.441 174.7C391.467 159.178 412.836 153.506 431.844 160.528L707.983 262.535C728.762 270.21 741.589 291.108 739.028 313.111L702.257 629Z" stroke="url(#paint3_linear_1288_244)" stroke-width="4"/>
<path opacity="0.357143" d="M618.055 709.421C608.571 726.088 590.076 735.511 571.018 733.387L254.953 698.156C232.938 695.702 215.462 678.502 212.657 656.529L175.382 364.522C172.816 344.421 183.149 324.875 201.204 315.676L497.49 164.711C515.545 155.511 537.432 158.641 552.185 172.531L766.515 374.325C782.642 389.509 786.285 413.758 775.33 433.01L618.055 709.421Z" stroke="url(#paint4_linear_1288_244)" stroke-width="4"/>
<path opacity="0.428571" d="M509.137 750.549C493.895 762.186 473.189 763.634 456.475 754.232L179.302 598.305C159.996 587.444 150.629 564.783 156.633 543.461L236.418 260.102C241.91 240.597 259.059 226.642 279.273 225.229L610.992 202.033C631.206 200.619 650.13 212.052 658.283 230.603L776.728 500.1C785.64 520.379 779.519 544.123 761.912 557.565L509.137 750.549Z" stroke="url(#paint5_linear_1288_244)" stroke-width="4"/>
<path opacity="0.5" d="M392.799 745.849C374.221 750.605 354.595 743.847 342.884 728.662L148.67 476.83C135.143 459.29 135.375 434.77 149.232 417.489L333.392 187.83C346.069 172.022 367.307 165.876 386.466 172.474L700.879 280.734C720.038 287.332 732.991 305.25 733.248 325.512L736.976 619.865C737.256 642.014 722.343 661.479 700.884 666.973L392.799 745.849Z" stroke="url(#paint6_linear_1288_244)" stroke-width="4"/>
<path opacity="0.571429" d="M287.546 696.065C268.587 693.185 253.162 679.296 248.315 660.741L167.938 353.044C162.34 331.612 172.134 309.132 191.643 298.639L450.897 159.194C468.743 149.596 490.694 152.238 505.753 165.796L752.87 388.302C767.929 401.861 772.851 423.416 765.17 442.167L653.588 714.577C645.192 735.075 623.859 747.166 601.96 743.838L287.546 696.065Z" stroke="url(#paint7_linear_1288_244)" stroke-width="4"/>
<path opacity="0.642857" d="M210.111 609.113C193.784 599.054 185.012 580.242 187.801 561.269L234.041 246.626C237.261 224.71 255.061 207.845 277.118 205.808L570.249 178.747C590.426 176.885 609.6 187.894 618.164 206.258L758.697 507.632C767.26 525.997 763.369 547.762 748.972 562.021L539.822 769.178C524.083 784.766 499.722 787.56 480.864 775.94L210.111 609.113Z" stroke="url(#paint8_linear_1288_244)" stroke-width="4"/>
<path opacity="0.714286" d="M172.805 498.819C161.707 483.18 160.982 462.436 170.962 446.06L336.467 174.498C347.995 155.583 370.97 147.013 392.069 153.757L672.471 243.382C691.772 249.551 705.12 267.177 705.827 287.428L717.433 619.755C718.14 640.006 706.054 658.52 687.23 666.02L413.763 774.987C393.185 783.187 369.669 776.24 356.85 758.175L172.805 498.819Z" stroke="url(#paint9_linear_1288_244)" stroke-width="4"/>
<path opacity="0.785714" d="M181.565 382.716C177.46 363.984 184.899 344.606 200.484 333.432L458.94 148.125C476.942 135.218 501.439 136.306 518.226 150.758L741.317 342.82C756.674 356.041 762.074 377.481 754.812 396.398L635.644 706.841C628.383 725.759 610.023 738.078 589.765 737.627L295.461 731.08C273.315 730.588 254.383 715.005 249.641 693.367L181.565 382.716Z" stroke="url(#paint10_linear_1288_244)" stroke-width="4"/>
<path opacity="0.857143" d="M234.994 279.265C238.534 260.417 252.953 245.486 271.665 241.29L581.981 171.701C603.595 166.854 625.719 177.427 635.525 197.29L765.837 461.253C774.807 479.423 771.4 501.268 757.324 515.844L526.33 755.046C512.254 769.622 490.541 773.789 472.069 765.458L203.719 644.438C183.526 635.331 172.187 613.59 176.277 591.819L234.994 279.265Z" stroke="url(#paint11_linear_1288_244)" stroke-width="4"/>
<path opacity="0.928571" d="M324.591 204.913C335.214 188.947 354.32 180.837 373.185 184.286L686.022 241.479C707.812 245.462 724.046 263.839 725.311 285.954L742.126 579.851C743.283 600.081 731.612 618.859 712.959 626.777L406.865 756.706C388.212 764.624 366.596 759.975 352.848 745.089L153.117 528.836C138.088 512.564 136.145 488.12 148.416 469.679L324.591 204.913Z" stroke="url(#paint12_linear_1288_244)" stroke-width="4"/>
<path d="M435.635 171.79C451.657 161.235 472.425 161.235 488.447 171.79L754.331 346.944C772.823 359.126 780.582 382.376 773.112 403.221L673.642 680.797C666.805 699.875 648.722 712.604 628.456 712.604H295.627C275.36 712.604 257.277 699.875 250.44 680.797L150.97 403.221C143.5 382.376 151.259 359.126 169.751 346.944L435.635 171.79Z" stroke="url(#paint13_linear_1288_244)" stroke-width="4"/>
<path d="M393.023 428C389.896 422.447 386.513 416.963 382.873 411.55C379.233 406.137 375.36 401.027 371.253 396.22V428H360.473V379.49H369.363C370.903 381.03 372.606 382.92 374.473 385.16C376.34 387.4 378.23 389.803 380.143 392.37C382.103 394.89 384.04 397.527 385.953 400.28C387.866 402.987 389.663 405.6 391.343 408.12V379.49H402.193V428H393.023ZM426.753 420.72C427.78 420.72 428.76 420.697 429.693 420.65C430.627 420.603 431.373 420.533 431.933 420.44V412.53C431.513 412.437 430.883 412.343 430.043 412.25C429.203 412.157 428.433 412.11 427.733 412.11C426.753 412.11 425.82 412.18 424.933 412.32C424.093 412.413 423.347 412.623 422.693 412.95C422.04 413.277 421.527 413.72 421.153 414.28C420.78 414.84 420.593 415.54 420.593 416.38C420.593 418.013 421.13 419.157 422.203 419.81C423.323 420.417 424.84 420.72 426.753 420.72ZM425.913 390.2C428.993 390.2 431.56 390.55 433.613 391.25C435.667 391.95 437.3 392.953 438.513 394.26C439.773 395.567 440.66 397.153 441.173 399.02C441.687 400.887 441.943 402.963 441.943 405.25V426.95C440.45 427.277 438.373 427.65 435.713 428.07C433.053 428.537 429.833 428.77 426.053 428.77C423.673 428.77 421.503 428.56 419.543 428.14C417.63 427.72 415.973 427.043 414.573 426.11C413.173 425.13 412.1 423.87 411.353 422.33C410.607 420.79 410.233 418.9 410.233 416.66C410.233 414.513 410.653 412.693 411.493 411.2C412.38 409.707 413.547 408.517 414.993 407.63C416.44 406.743 418.097 406.113 419.963 405.74C421.83 405.32 423.767 405.11 425.773 405.11C427.127 405.11 428.317 405.18 429.343 405.32C430.417 405.413 431.28 405.553 431.933 405.74V404.76C431.933 402.987 431.397 401.563 430.323 400.49C429.25 399.417 427.383 398.88 424.723 398.88C422.95 398.88 421.2 399.02 419.473 399.3C417.747 399.533 416.253 399.883 414.993 400.35L413.663 391.95C414.27 391.763 415.017 391.577 415.903 391.39C416.837 391.157 417.84 390.97 418.913 390.83C419.987 390.643 421.107 390.503 422.273 390.41C423.487 390.27 424.7 390.2 425.913 390.2ZM451.025 382.01L461.455 380.33V391.18H473.985V399.86H461.455V412.81C461.455 415.003 461.828 416.753 462.575 418.06C463.368 419.367 464.931 420.02 467.265 420.02C468.385 420.02 469.528 419.927 470.695 419.74C471.908 419.507 473.005 419.203 473.985 418.83L475.455 426.95C474.195 427.463 472.795 427.907 471.255 428.28C469.715 428.653 467.825 428.84 465.585 428.84C462.738 428.84 460.381 428.467 458.515 427.72C456.648 426.927 455.155 425.853 454.035 424.5C452.915 423.1 452.121 421.42 451.655 419.46C451.235 417.5 451.025 415.33 451.025 412.95V382.01ZM492.908 428H482.478V391.18H492.908V428ZM493.888 380.54C493.888 382.453 493.258 383.97 491.998 385.09C490.785 386.163 489.338 386.7 487.658 386.7C485.978 386.7 484.508 386.163 483.248 385.09C482.035 383.97 481.428 382.453 481.428 380.54C481.428 378.627 482.035 377.133 483.248 376.06C484.508 374.94 485.978 374.38 487.658 374.38C489.338 374.38 490.785 374.94 491.998 376.06C493.258 377.133 493.888 378.627 493.888 380.54ZM511.629 428C509.249 423.333 506.822 417.873 504.349 411.62C501.922 405.367 499.612 398.553 497.419 391.18H508.479C508.945 393 509.482 394.983 510.089 397.13C510.742 399.23 511.395 401.377 512.049 403.57C512.749 405.717 513.425 407.817 514.079 409.87C514.779 411.923 515.455 413.79 516.109 415.47C516.715 413.79 517.369 411.923 518.069 409.87C518.769 407.817 519.445 405.717 520.099 403.57C520.799 401.377 521.452 399.23 522.059 397.13C522.712 394.983 523.272 393 523.739 391.18H534.519C532.325 398.553 529.992 405.367 527.519 411.62C525.092 417.873 522.689 423.333 520.309 428H511.629ZM537.398 409.87C537.398 406.603 537.888 403.757 538.868 401.33C539.895 398.857 541.225 396.803 542.858 395.17C544.491 393.537 546.358 392.3 548.458 391.46C550.605 390.62 552.798 390.2 555.038 390.2C560.265 390.2 564.395 391.81 567.428 395.03C570.461 398.203 571.978 402.893 571.978 409.1C571.978 409.707 571.955 410.383 571.908 411.13C571.861 411.83 571.815 412.46 571.768 413.02H548.108C548.341 415.167 549.345 416.87 551.118 418.13C552.891 419.39 555.271 420.02 558.258 420.02C560.171 420.02 562.038 419.857 563.858 419.53C565.725 419.157 567.241 418.713 568.408 418.2L569.808 426.67C569.248 426.95 568.501 427.23 567.568 427.51C566.635 427.79 565.585 428.023 564.418 428.21C563.298 428.443 562.085 428.63 560.778 428.77C559.471 428.91 558.165 428.98 556.858 428.98C553.545 428.98 550.651 428.49 548.178 427.51C545.751 426.53 543.721 425.2 542.088 423.52C540.501 421.793 539.311 419.763 538.518 417.43C537.771 415.097 537.398 412.577 537.398 409.87ZM561.898 405.88C561.851 404.993 561.688 404.13 561.408 403.29C561.175 402.45 560.778 401.703 560.218 401.05C559.705 400.397 559.028 399.86 558.188 399.44C557.395 399.02 556.391 398.81 555.178 398.81C554.011 398.81 553.008 399.02 552.168 399.44C551.328 399.813 550.628 400.327 550.068 400.98C549.508 401.633 549.065 402.403 548.738 403.29C548.458 404.13 548.248 404.993 548.108 405.88H561.898ZM427.07 546C426.131 542.928 425.064 539.771 423.87 536.528C422.76 533.285 421.651 530.043 420.542 526.8H385.982C384.872 530.043 383.72 533.285 382.526 536.528C381.416 539.771 380.392 542.928 379.454 546H358.718C362.046 536.443 365.203 527.611 368.19 519.504C371.176 511.397 374.078 503.76 376.894 496.592C379.795 489.424 382.611 482.64 385.342 476.24C388.158 469.755 391.059 463.44 394.046 457.296H413.118C416.019 463.44 418.878 469.755 421.694 476.24C424.51 482.64 427.326 489.424 430.142 496.592C433.043 503.76 435.987 511.397 438.974 519.504C441.96 527.611 445.118 536.443 448.446 546H427.07ZM403.134 477.392C402.707 478.672 402.067 480.421 401.214 482.64C400.36 484.859 399.379 487.419 398.27 490.32C397.16 493.221 395.923 496.421 394.558 499.92C393.278 503.419 391.955 507.088 390.59 510.928H415.806C414.44 507.088 413.118 503.419 411.838 499.92C410.558 496.421 409.32 493.221 408.126 490.32C407.016 487.419 406.035 484.859 405.182 482.64C404.328 480.421 403.646 478.672 403.134 477.392ZM486.552 456.272C499.778 456.272 509.933 458.619 517.016 463.312C524.098 467.92 527.64 475.515 527.64 486.096C527.64 496.763 524.056 504.485 516.888 509.264C509.72 513.957 499.48 516.304 486.168 516.304H479.896V546H459.928V458.576C464.28 457.723 468.888 457.125 473.752 456.784C478.616 456.443 482.882 456.272 486.552 456.272ZM487.832 473.296C486.381 473.296 484.93 473.339 483.479 473.424C482.114 473.509 480.92 473.595 479.896 473.68V499.28H486.168C493.08 499.28 498.285 498.341 501.784 496.464C505.282 494.587 507.032 491.088 507.032 485.968C507.032 483.493 506.562 481.445 505.624 479.824C504.77 478.203 503.49 476.923 501.784 475.984C500.162 474.96 498.157 474.277 495.768 473.936C493.378 473.509 490.733 473.296 487.832 473.296ZM542.303 457.296H562.271V546H542.303V457.296Z" fill="#2997FF"/>
<defs>
<linearGradient id="paint0_linear_1288_244" x1="365.004" y1="287.695" x2="562.651" y2="644.259" gradientUnits="userSpaceOnUse">
<stop stop-color="#1768E5"/>
<stop offset="1" stop-color="#00F0FF"/>
</linearGradient>
<linearGradient id="paint1_linear_1288_244" x1="440.974" y1="263.471" x2="483.588" y2="668.917" gradientUnits="userSpaceOnUse">
<stop stop-color="#1768E5"/>
<stop offset="1" stop-color="#00F0FF"/>
</linearGradient>
<linearGradient id="paint2_linear_1288_244" x1="520.376" y1="270.86" x2="401.182" y2="660.725" gradientUnits="userSpaceOnUse">
<stop stop-color="#1768E5"/>
<stop offset="1" stop-color="#00F0FF"/>
</linearGradient>
<linearGradient id="paint3_linear_1288_244" x1="590.571" y1="308.684" x2="328.52" y2="620.984" gradientUnits="userSpaceOnUse">
<stop stop-color="#1768E5"/>
<stop offset="1" stop-color="#00F0FF"/>
</linearGradient>
<linearGradient id="paint4_linear_1288_244" x1="640.404" y1="370.928" x2="277.16" y2="556.011" gradientUnits="userSpaceOnUse">
<stop stop-color="#1768E5"/>
<stop offset="1" stop-color="#00F0FF"/>
</linearGradient>
<linearGradient id="paint5_linear_1288_244" x1="661.97" y1="447.698" x2="255.284" y2="476.136" gradientUnits="userSpaceOnUse">
<stop stop-color="#1768E5"/>
<stop offset="1" stop-color="#00F0FF"/>
</linearGradient>
<linearGradient id="paint6_linear_1288_244" x1="651.815" y1="526.789" x2="266.347" y2="394.062" gradientUnits="userSpaceOnUse">
<stop stop-color="#1768E5"/>
<stop offset="1" stop-color="#00F0FF"/>
</linearGradient>
<linearGradient id="paint7_linear_1288_244" x1="611.565" y1="595.626" x2="308.6" y2="322.835" gradientUnits="userSpaceOnUse">
<stop stop-color="#1768E5"/>
<stop offset="1" stop-color="#00F0FF"/>
</linearGradient>
<linearGradient id="paint8_linear_1288_244" x1="547.617" y1="643.263" x2="375.324" y2="273.78" gradientUnits="userSpaceOnUse">
<stop stop-color="#1768E5"/>
<stop offset="1" stop-color="#00F0FF"/>
</linearGradient>
<linearGradient id="paint9_linear_1288_244" x1="470.138" y1="662.128" x2="455.91" y2="254.697" gradientUnits="userSpaceOnUse">
<stop stop-color="#1768E5"/>
<stop offset="1" stop-color="#00F0FF"/>
</linearGradient>
<linearGradient id="paint10_linear_1288_244" x1="391.452" y1="649.22" x2="537.551" y2="268.619" gradientUnits="userSpaceOnUse">
<stop stop-color="#1768E5"/>
<stop offset="1" stop-color="#00F0FF"/>
</linearGradient>
<linearGradient id="paint11_linear_1288_244" x1="324.064" y1="606.592" x2="607.262" y2="313.332" gradientUnits="userSpaceOnUse">
<stop stop-color="#1768E5"/>
<stop offset="1" stop-color="#00F0FF"/>
</linearGradient>
<linearGradient id="paint12_linear_1288_244" x1="278.683" y1="541.022" x2="653.954" y2="381.729" gradientUnits="userSpaceOnUse">
<stop stop-color="#1768E5"/>
<stop offset="1" stop-color="#00F0FF"/>
</linearGradient>
<linearGradient id="paint13_linear_1288_244" x1="261.904" y1="463.644" x2="669.9" y2="463.644" gradientUnits="userSpaceOnUse">
<stop stop-color="#1768E5"/>
<stop offset="1" stop-color="#00F0FF"/>
</linearGradient>
</defs>
</svg>
