<svg width="789" height="757" viewBox="0 0 789 757" fill="none" xmlns="http://www.w3.org/2000/svg">
<rect x="169.995" y="367.5" width="309.013" height="309.013" transform="rotate(-45 169.995 367.5)" stroke="white" stroke-width="140" stroke-dasharray="5 0"/>
<rect x="169.995" y="367.5" width="309.013" height="309.013" transform="rotate(-45 169.995 367.5)" stroke="url(#paint0_linear_1551_88)" stroke-width="140" stroke-dasharray="5 0"/>
<path d="M388.92 533.847C330.895 475.822 295.698 440.625 242.446 387.373C242.446 348.465 242.446 387.373 242.446 348.465L388.92 201.991L554.848 367.919L388.92 533.847Z" fill="black"/>
<path d="M328.997 388.139C330.779 388.139 332.237 388.004 333.371 387.734C334.559 387.41 335.504 387.005 336.206 386.519C336.908 385.979 337.394 385.358 337.664 384.656C337.934 383.954 338.069 383.171 338.069 382.307C338.069 380.471 337.205 378.959 335.477 377.771C333.749 376.529 330.779 375.206 326.567 373.802C324.731 373.154 322.895 372.425 321.059 371.615C319.223 370.751 317.576 369.698 316.118 368.456C314.66 367.16 313.472 365.621 312.554 363.839C311.636 362.003 311.177 359.789 311.177 357.197C311.177 354.605 311.663 352.283 312.635 350.231C313.607 348.125 314.984 346.343 316.766 344.885C318.548 343.427 320.708 342.32 323.246 341.564C325.784 340.754 328.646 340.349 331.832 340.349C335.612 340.349 338.879 340.754 341.633 341.564C344.387 342.374 346.655 343.265 348.437 344.237L344.792 354.2C343.226 353.39 341.471 352.688 339.527 352.094C337.637 351.446 335.342 351.122 332.642 351.122C329.618 351.122 327.431 351.554 326.081 352.418C324.785 353.228 324.137 354.497 324.137 356.225C324.137 357.251 324.38 358.115 324.866 358.817C325.352 359.519 326.027 360.167 326.891 360.761C327.809 361.301 328.835 361.814 329.969 362.3C331.157 362.732 332.453 363.191 333.857 363.677C336.773 364.757 339.311 365.837 341.471 366.917C343.631 367.943 345.413 369.158 346.817 370.562C348.275 371.966 349.355 373.613 350.057 375.503C350.759 377.393 351.11 379.688 351.11 382.388C351.11 387.626 349.274 391.703 345.602 394.619C341.93 397.481 336.395 398.912 328.997 398.912C326.513 398.912 324.272 398.75 322.274 398.426C320.276 398.156 318.494 397.805 316.928 397.373C315.416 396.941 314.093 396.482 312.959 395.996C311.879 395.51 310.961 395.051 310.205 394.619L313.769 384.575C315.443 385.493 317.495 386.33 319.925 387.086C322.409 387.788 325.433 388.139 328.997 388.139ZM373.468 387.491C374.062 387.545 374.737 387.599 375.493 387.653C376.303 387.653 377.248 387.653 378.328 387.653C384.646 387.653 389.317 386.06 392.341 382.874C395.419 379.688 396.958 375.287 396.958 369.671C396.958 363.785 395.5 359.33 392.584 356.306C389.668 353.282 385.051 351.77 378.733 351.77C377.869 351.77 376.978 351.797 376.06 351.851C375.142 351.851 374.278 351.905 373.468 352.013V387.491ZM409.999 369.671C409.999 374.531 409.243 378.77 407.731 382.388C406.219 386.006 404.059 389.003 401.251 391.379C398.497 393.755 395.122 395.537 391.126 396.725C387.13 397.913 382.648 398.507 377.68 398.507C375.412 398.507 372.766 398.399 369.742 398.183C366.718 398.021 363.748 397.643 360.832 397.049V342.374C363.748 341.834 366.772 341.483 369.904 341.321C373.09 341.105 375.817 340.997 378.085 340.997C382.891 340.997 387.238 341.537 391.126 342.617C395.068 343.697 398.443 345.398 401.251 347.72C404.059 350.042 406.219 353.012 407.731 356.63C409.243 360.248 409.999 364.595 409.999 369.671ZM453.683 397.778C452.549 395.942 451.199 393.971 449.633 391.865C448.121 389.705 446.447 387.572 444.611 385.466C442.829 383.306 440.966 381.254 439.022 379.31C437.078 377.312 435.134 375.557 433.19 374.045V397.778H420.554V341.645H433.19V362.867C436.484 359.411 439.778 355.82 443.072 352.094C446.42 348.314 449.525 344.831 452.387 341.645H467.372C463.538 346.181 459.677 350.555 455.789 354.767C451.955 358.979 447.905 363.218 443.639 367.484C448.121 371.21 452.441 375.638 456.599 380.768C460.811 385.898 464.834 391.568 468.668 397.778H453.683Z" fill="#2997FF"/>
<defs>
<linearGradient id="paint0_linear_1551_88" x1="63.7942" y1="592.471" x2="512.56" y2="592.471" gradientUnits="userSpaceOnUse">
<stop stop-color="#1768E5"/>
<stop offset="1" stop-color="#00F0FF"/>
</linearGradient>
</defs>
</svg>
