<svg width="989" height="989" viewBox="0 0 989 989" fill="none" xmlns="http://www.w3.org/2000/svg">
<g opacity="0.0526316">
<rect x="375.574" y="939.698" width="652.547" height="652.547" transform="rotate(-120 375.574 939.698)" fill="black" stroke="url(#paint0_linear_3800_675)" stroke-width="2.5"/>
<rect x="204.623" y="852.59" width="652.547" height="652.547" transform="rotate(-96 204.623 852.59)" fill="black" stroke="url(#paint1_linear_3800_675)" stroke-width="2.5"/>
<rect x="83.873" y="703.479" width="652.547" height="652.547" transform="rotate(-72 83.873 703.479)" fill="black" stroke="url(#paint2_linear_3800_675)" stroke-width="2.5"/>
</g>
<g opacity="0.105263">
<rect x="214.773" y="840.048" width="629.724" height="629.724" transform="rotate(-96 214.773 840.048)" fill="black" stroke="url(#paint3_linear_3800_675)" stroke-width="2.5"/>
<rect x="98.25" y="696.152" width="629.724" height="629.724" transform="rotate(-72 98.25 696.152)" fill="black" stroke="url(#paint4_linear_3800_675)" stroke-width="2.5"/>
<rect x="50.3281" y="517.304" width="629.724" height="629.724" transform="rotate(-48 50.3281 517.304)" fill="black" stroke="url(#paint5_linear_3800_675)" stroke-width="2.5"/>
</g>
<g opacity="0.157895">
<rect x="112.627" y="688.826" width="606.901" height="606.901" transform="rotate(-72 112.627 688.826)" fill="black" stroke="url(#paint6_linear_3800_675)" stroke-width="2.5"/>
<rect x="66.4434" y="516.46" width="606.901" height="606.901" transform="rotate(-48 66.4434 516.46)" fill="black" stroke="url(#paint7_linear_3800_675)" stroke-width="2.5"/>
<rect x="94.3613" y="340.21" width="606.901" height="606.901" transform="rotate(-24 94.3613 340.21)" fill="black" stroke="url(#paint8_linear_3800_675)" stroke-width="2.5"/>
</g>
<g opacity="0.210526">
<rect x="82.5566" y="515.614" width="584.078" height="584.078" transform="rotate(-48 82.5566 515.614)" fill="black" stroke="url(#paint9_linear_3800_675)" stroke-width="2.5"/>
<rect x="109.426" y="345.992" width="584.078" height="584.078" transform="rotate(-24 109.426 345.992)" fill="black" stroke="url(#paint10_linear_3800_675)" stroke-width="2.5"/>
<rect x="202.959" y="201.961" width="584.078" height="584.078" fill="black" stroke="url(#paint11_linear_3800_675)" stroke-width="2.5"/>
</g>
<g opacity="0.263158">
<rect x="124.488" y="351.775" width="561.256" height="561.256" transform="rotate(-24 124.488 351.775)" fill="black" stroke="url(#paint12_linear_3800_675)" stroke-width="2.5"/>
<rect x="214.369" y="213.375" width="561.256" height="561.256" fill="black" stroke="url(#paint13_linear_3800_675)" stroke-width="2.5"/>
<rect x="352.775" y="123.495" width="561.256" height="561.256" transform="rotate(24 352.775 123.495)" fill="black" stroke="url(#paint14_linear_3800_675)" stroke-width="2.5"/>
</g>
<g opacity="0.315789">
<rect x="225.775" y="224.781" width="538.433" height="538.433" fill="black" stroke="url(#paint15_linear_3800_675)" stroke-width="2.5"/>
<rect x="358.555" y="138.557" width="538.433" height="538.433" transform="rotate(24 358.555 138.557)" fill="black" stroke="url(#paint16_linear_3800_675)" stroke-width="2.5"/>
<rect x="514.918" y="113.792" width="538.433" height="538.433" transform="rotate(48 514.918 113.792)" fill="black" stroke="url(#paint17_linear_3800_675)" stroke-width="2.5"/>
</g>
<g opacity="0.368421">
<rect x="364.344" y="153.625" width="515.611" height="515.611" transform="rotate(24 364.344 153.625)" fill="black" stroke="url(#paint18_linear_3800_675)" stroke-width="2.5"/>
<rect x="514.078" y="129.91" width="515.611" height="515.611" transform="rotate(48 514.078 129.91)" fill="black" stroke="url(#paint19_linear_3800_675)" stroke-width="2.5"/>
<rect x="660.52" y="169.148" width="515.611" height="515.611" transform="rotate(72 660.52 169.148)" fill="black" stroke="url(#paint20_linear_3800_675)" stroke-width="2.5"/>
</g>
<g opacity="0.421053">
<rect x="513.234" y="146.025" width="492.788" height="492.788" transform="rotate(48 513.234 146.025)" fill="black" stroke="url(#paint21_linear_3800_675)" stroke-width="2.5"/>
<rect x="653.193" y="183.527" width="492.788" height="492.788" transform="rotate(72 653.193 183.527)" fill="black" stroke="url(#paint22_linear_3800_675)" stroke-width="2.5"/>
<rect x="765.797" y="274.712" width="492.788" height="492.788" transform="rotate(96 765.797 274.712)" fill="black" stroke="url(#paint23_linear_3800_675)" stroke-width="2.5"/>
</g>
<g opacity="0.473684">
<rect x="645.865" y="197.905" width="469.965" height="469.965" transform="rotate(72 645.865 197.905)" fill="black" stroke="url(#paint24_linear_3800_675)" stroke-width="2.5"/>
<rect x="753.25" y="284.868" width="469.965" height="469.965" transform="rotate(96 753.25 284.868)" fill="black" stroke="url(#paint25_linear_3800_675)" stroke-width="2.5"/>
<rect x="815.982" y="407.99" width="469.965" height="469.965" transform="rotate(120 815.982 407.99)" fill="black" stroke="url(#paint26_linear_3800_675)" stroke-width="2.5"/>
</g>
<g opacity="0.526316">
<rect x="740.715" y="295.023" width="447.143" height="447.143" transform="rotate(96 740.715 295.023)" fill="black" stroke="url(#paint27_linear_3800_675)" stroke-width="2.5"/>
<rect x="800.404" y="412.167" width="447.143" height="447.143" transform="rotate(120 800.404 412.167)" fill="black" stroke="url(#paint28_linear_3800_675)" stroke-width="2.5"/>
<rect x="807.283" y="543.46" width="447.143" height="447.143" transform="rotate(144 807.283 543.46)" fill="black" stroke="url(#paint29_linear_3800_675)" stroke-width="2.5"/>
</g>
<g opacity="0.578947">
<rect x="784.816" y="416.345" width="424.32" height="424.32" transform="rotate(120 784.816 416.345)" fill="black" stroke="url(#paint30_linear_3800_675)" stroke-width="2.5"/>
<rect x="791.342" y="540.937" width="424.32" height="424.32" transform="rotate(144 791.342 540.937)" fill="black" stroke="url(#paint31_linear_3800_675)" stroke-width="2.5"/>
<rect x="746.635" y="657.414" width="424.32" height="424.32" transform="rotate(168 746.635 657.414)" fill="black" stroke="url(#paint32_linear_3800_675)" stroke-width="2.5"/>
</g>
<g opacity="0.631579">
<rect x="775.406" y="538.412" width="401.497" height="401.497" transform="rotate(144 775.406 538.412)" fill="black" stroke="url(#paint33_linear_3800_675)" stroke-width="2.5"/>
<rect x="733.1" y="648.624" width="401.497" height="401.497" transform="rotate(168 733.1 648.624)" fill="black" stroke="url(#paint34_linear_3800_675)" stroke-width="2.5"/>
<rect x="649.617" y="732.099" width="401.497" height="401.497" transform="rotate(-168 649.617 732.099)" fill="black" stroke="url(#paint35_linear_3800_675)" stroke-width="2.5"/>
</g>
<g opacity="0.684211">
<rect x="719.564" y="639.833" width="378.675" height="378.675" transform="rotate(168 719.564 639.833)" fill="black" stroke="url(#paint36_linear_3800_675)" stroke-width="2.5"/>
<rect x="640.832" y="718.563" width="378.675" height="378.675" transform="rotate(-168 640.832 718.563)" fill="black" stroke="url(#paint37_linear_3800_675)" stroke-width="2.5"/>
<rect x="536.887" y="758.465" width="378.675" height="378.675" transform="rotate(-144 536.887 758.465)" fill="black" stroke="url(#paint38_linear_3800_675)" stroke-width="2.5"/>
</g>
<g opacity="0.736842">
<rect x="632.041" y="705.032" width="355.852" height="355.852" transform="rotate(-168 632.041 705.032)" fill="black" stroke="url(#paint39_linear_3800_675)" stroke-width="2.5"/>
<rect x="534.361" y="742.527" width="355.852" height="355.852" transform="rotate(-144 534.361 742.527)" fill="black" stroke="url(#paint40_linear_3800_675)" stroke-width="2.5"/>
<rect x="429.873" y="737.052" width="355.852" height="355.852" transform="rotate(-120 429.873 737.052)" fill="black" stroke="url(#paint41_linear_3800_675)" stroke-width="2.5"/>
</g>
<g opacity="0.789474">
<rect x="531.834" y="726.589" width="333.03" height="333.03" transform="rotate(-144 531.834 726.589)" fill="black" stroke="url(#paint42_linear_3800_675)" stroke-width="2.5"/>
<rect x="434.045" y="721.463" width="333.029" height="333.029" transform="rotate(-120 434.045 721.463)" fill="black" stroke="url(#paint43_linear_3800_675)" stroke-width="2.5"/>
<rect x="346.797" y="677.007" width="333.03" height="333.03" transform="rotate(-96 346.797 677.007)" fill="black" stroke="url(#paint44_linear_3800_675)" stroke-width="2.5"/>
</g>
<g opacity="0.842105">
<rect x="438.227" y="705.875" width="310.207" height="310.207" transform="rotate(-120 438.227 705.875)" fill="black" stroke="url(#paint45_linear_3800_675)" stroke-width="2.5"/>
<rect x="356.959" y="664.465" width="310.207" height="310.207" transform="rotate(-96 356.959 664.465)" fill="black" stroke="url(#paint46_linear_3800_675)" stroke-width="2.5"/>
<rect x="299.557" y="593.581" width="310.207" height="310.207" transform="rotate(-72 299.557 593.581)" fill="black" stroke="url(#paint47_linear_3800_675)" stroke-width="2.5"/>
</g>
<g opacity="0.894737">
<rect x="367.115" y="651.926" width="287.384" height="287.384" transform="rotate(-96 367.115 651.926)" fill="black" stroke="url(#paint48_linear_3800_675)" stroke-width="2.5"/>
<rect x="313.939" y="586.257" width="287.384" height="287.384" transform="rotate(-72 313.939 586.257)" fill="black" stroke="url(#paint49_linear_3800_675)" stroke-width="2.5"/>
<rect x="292.07" y="504.637" width="287.384" height="287.384" transform="rotate(-48 292.07 504.637)" fill="black" stroke="url(#paint50_linear_3800_675)" stroke-width="2.5"/>
</g>
<g opacity="0.947368">
<rect x="328.316" y="578.929" width="264.562" height="264.562" transform="rotate(-72 328.316 578.929)" fill="black" stroke="url(#paint51_linear_3800_675)" stroke-width="2.5"/>
<rect x="308.186" y="503.79" width="264.562" height="264.562" transform="rotate(-48 308.186 503.79)" fill="black" stroke="url(#paint52_linear_3800_675)" stroke-width="2.5"/>
<rect x="320.352" y="426.958" width="264.562" height="264.562" transform="rotate(-24 320.352 426.958)" fill="black" stroke="url(#paint53_linear_3800_675)" stroke-width="2.5"/>
</g>
<rect x="324.295" y="502.945" width="241.739" height="241.739" transform="rotate(-48 324.295 502.945)" fill="black" stroke="url(#paint54_linear_3800_675)" stroke-width="2.5"/>
<rect x="335.418" y="432.742" width="241.739" height="241.739" transform="rotate(-24 335.418 432.742)" fill="black" stroke="url(#paint55_linear_3800_675)" stroke-width="2.5"/>
<rect x="347" y="346" width="296" height="296" fill="black" stroke="url(#paint56_linear_3800_675)" stroke-width="2.5"/>
<path d="M403.99 422.425C411.74 422.425 417.69 423.8 421.84 426.55C425.99 429.25 428.065 433.7 428.065 439.9C428.065 446.15 425.965 450.675 421.765 453.475C417.565 456.225 411.565 457.6 403.765 457.6H400.09V475H388.39V423.775C390.94 423.275 393.64 422.925 396.49 422.725C399.34 422.525 401.84 422.425 403.99 422.425ZM404.74 432.4C403.89 432.4 403.04 432.425 402.19 432.475C401.39 432.525 400.69 432.575 400.09 432.625V447.625H403.765C407.815 447.625 410.865 447.075 412.915 445.975C414.965 444.875 415.99 442.825 415.99 439.825C415.99 438.375 415.715 437.175 415.165 436.225C414.665 435.275 413.915 434.525 412.915 433.975C411.965 433.375 410.79 432.975 409.39 432.775C407.99 432.525 406.44 432.4 404.74 432.4ZM471.708 455.2C471.708 458.3 471.258 461.15 470.358 463.75C469.458 466.3 468.158 468.5 466.458 470.35C464.758 472.15 462.708 473.55 460.308 474.55C457.958 475.55 455.308 476.05 452.358 476.05C449.458 476.05 446.808 475.55 444.408 474.55C442.058 473.55 440.033 472.15 438.333 470.35C436.633 468.5 435.308 466.3 434.358 463.75C433.408 461.15 432.933 458.3 432.933 455.2C432.933 452.1 433.408 449.275 434.358 446.725C435.358 444.175 436.708 442 438.408 440.2C440.158 438.4 442.208 437 444.558 436C446.958 435 449.558 434.5 452.358 434.5C455.208 434.5 457.808 435 460.158 436C462.558 437 464.608 438.4 466.308 440.2C468.008 442 469.333 444.175 470.283 446.725C471.233 449.275 471.708 452.1 471.708 455.2ZM460.308 455.2C460.308 451.75 459.608 449.05 458.208 447.1C456.858 445.1 454.908 444.1 452.358 444.1C449.808 444.1 447.833 445.1 446.433 447.1C445.033 449.05 444.333 451.75 444.333 455.2C444.333 458.65 445.033 461.4 446.433 463.45C447.833 465.45 449.808 466.45 452.358 466.45C454.908 466.45 456.858 465.45 458.208 463.45C459.608 461.4 460.308 458.65 460.308 455.2ZM503.486 452.35C502.486 456.15 501.411 459.925 500.261 463.675C499.161 467.425 497.986 471.2 496.736 475H488.036C487.136 472.9 486.161 470.4 485.111 467.5C484.061 464.6 482.961 461.45 481.811 458.05C480.711 454.6 479.561 450.975 478.361 447.175C477.211 443.325 476.086 439.45 474.986 435.55H486.761C487.161 437.35 487.586 439.325 488.036 441.475C488.536 443.575 489.036 445.75 489.536 448C490.086 450.25 490.636 452.525 491.186 454.825C491.786 457.075 492.386 459.25 492.986 461.35C493.636 459.15 494.261 456.9 494.861 454.6C495.511 452.3 496.111 450.05 496.661 447.85C497.261 445.6 497.811 443.45 498.311 441.4C498.861 439.3 499.336 437.35 499.736 435.55H507.836C508.236 437.35 508.686 439.3 509.186 441.4C509.686 443.45 510.211 445.6 510.761 447.85C511.311 450.05 511.886 452.3 512.486 454.6C513.086 456.9 513.711 459.15 514.361 461.35C514.961 459.25 515.561 457.075 516.161 454.825C516.761 452.525 517.311 450.25 517.811 448C518.361 445.75 518.861 443.575 519.311 441.475C519.811 439.325 520.261 437.35 520.661 435.55H532.286C531.186 439.45 530.036 443.325 528.836 447.175C527.686 450.975 526.536 454.6 525.386 458.05C524.286 461.45 523.186 464.6 522.086 467.5C521.036 470.4 520.061 472.9 519.161 475H510.461C509.211 471.2 507.986 467.425 506.786 463.675C505.586 459.925 504.486 456.15 503.486 452.35ZM535.545 455.575C535.545 452.075 536.07 449.025 537.12 446.425C538.22 443.775 539.645 441.575 541.395 439.825C543.145 438.075 545.145 436.75 547.395 435.85C549.695 434.95 552.045 434.5 554.445 434.5C560.045 434.5 564.47 436.225 567.72 439.675C570.97 443.075 572.595 448.1 572.595 454.75C572.595 455.4 572.57 456.125 572.52 456.925C572.47 457.675 572.42 458.35 572.37 458.95H547.02C547.27 461.25 548.345 463.075 550.245 464.425C552.145 465.775 554.695 466.45 557.895 466.45C559.945 466.45 561.945 466.275 563.895 465.925C565.895 465.525 567.52 465.05 568.77 464.5L570.27 473.575C569.67 473.875 568.87 474.175 567.87 474.475C566.87 474.775 565.745 475.025 564.495 475.225C563.295 475.475 561.995 475.675 560.595 475.825C559.195 475.975 557.795 476.05 556.395 476.05C552.845 476.05 549.745 475.525 547.095 474.475C544.495 473.425 542.32 472 540.57 470.2C538.87 468.35 537.595 466.175 536.745 463.675C535.945 461.175 535.545 458.475 535.545 455.575ZM561.795 451.3C561.745 450.35 561.57 449.425 561.27 448.525C561.02 447.625 560.595 446.825 559.995 446.125C559.445 445.425 558.72 444.85 557.82 444.4C556.97 443.95 555.895 443.725 554.595 443.725C553.345 443.725 552.27 443.95 551.37 444.4C550.47 444.8 549.72 445.35 549.12 446.05C548.52 446.75 548.045 447.575 547.695 448.525C547.395 449.425 547.17 450.35 547.02 451.3H561.795ZM604.994 445.45C603.994 445.2 602.819 444.95 601.469 444.7C600.119 444.4 598.669 444.25 597.119 444.25C596.419 444.25 595.569 444.325 594.569 444.475C593.619 444.575 592.894 444.7 592.394 444.85V475H581.219V437.65C583.219 436.95 585.569 436.3 588.269 435.7C591.019 435.05 594.069 434.725 597.419 434.725C598.019 434.725 598.744 434.775 599.594 434.875C600.444 434.925 601.294 435.025 602.144 435.175C602.994 435.275 603.844 435.425 604.694 435.625C605.544 435.775 606.269 435.975 606.869 436.225L604.994 445.45ZM392.705 566V497.393H439.037V510.362H408.149V523.826H435.572V536.498H408.149V553.031H441.314V566H392.705ZM474.201 566C471.495 560.258 468.822 554.285 466.182 548.081C463.542 541.877 461.034 535.739 458.658 529.667C456.282 523.595 454.071 517.787 452.025 512.243C450.045 506.699 448.329 501.749 446.877 497.393H463.905C465.225 501.353 466.644 505.643 468.162 510.263C469.746 514.817 471.33 519.371 472.914 523.925C474.564 528.479 476.148 532.835 477.666 536.993C479.184 541.151 480.603 544.748 481.923 547.784C483.177 544.748 484.563 541.151 486.081 536.993C487.665 532.835 489.249 528.479 490.833 523.925C492.483 519.371 494.067 514.817 495.585 510.263C497.169 505.643 498.621 501.353 499.941 497.393H516.375C514.857 501.749 513.108 506.699 511.128 512.243C509.148 517.787 506.97 523.595 504.594 529.667C502.218 535.739 499.71 541.877 497.07 548.081C494.43 554.285 491.757 560.258 489.051 566H474.201ZM542.502 497.393C543.69 499.571 545.043 502.277 546.561 505.511C548.145 508.679 549.762 512.144 551.412 515.906C553.128 519.602 554.811 523.397 556.461 527.291C558.111 531.185 559.662 534.848 561.114 538.28C562.566 534.848 564.117 531.185 565.767 527.291C567.417 523.397 569.067 519.602 570.717 515.906C572.433 512.144 574.05 508.679 575.568 505.511C577.152 502.277 578.538 499.571 579.726 497.393H593.784C594.444 501.947 595.038 507.062 595.566 512.738C596.16 518.348 596.655 524.222 597.051 530.36C597.513 536.432 597.909 542.537 598.239 548.675C598.635 554.813 598.965 560.588 599.229 566H584.181C583.983 559.334 583.719 552.074 583.389 544.22C583.059 536.366 582.564 528.446 581.904 520.46C580.716 523.232 579.396 526.301 577.944 529.667C576.492 533.033 575.04 536.399 573.588 539.765C572.202 543.131 570.849 546.365 569.529 549.467C568.209 552.503 567.087 555.11 566.163 557.288H555.372C554.448 555.11 553.326 552.503 552.006 549.467C550.686 546.365 549.3 543.131 547.848 539.765C546.462 536.399 545.043 533.033 543.591 529.667C542.139 526.301 540.819 523.232 539.631 520.46C538.971 528.446 538.476 536.366 538.146 544.22C537.816 552.074 537.552 559.334 537.354 566H522.306C522.57 560.588 522.867 554.813 523.197 548.675C523.593 542.537 523.989 536.432 524.385 530.36C524.847 524.222 525.342 518.348 525.87 512.738C526.464 507.062 527.091 501.947 527.751 497.393H542.502Z" fill="white"/>
<defs>
<linearGradient id="paint0_linear_3800_675" x1="375.574" y1="1265.97" x2="1028.12" y2="1265.97" gradientUnits="userSpaceOnUse">
<stop stop-color="#00F0FF"/>
<stop offset="1" stop-color="#2997FF"/>
</linearGradient>
<linearGradient id="paint1_linear_3800_675" x1="204.623" y1="1178.86" x2="857.17" y2="1178.86" gradientUnits="userSpaceOnUse">
<stop stop-color="#00F0FF"/>
<stop offset="1" stop-color="#2997FF"/>
</linearGradient>
<linearGradient id="paint2_linear_3800_675" x1="83.873" y1="1029.75" x2="736.42" y2="1029.75" gradientUnits="userSpaceOnUse">
<stop stop-color="#00F0FF"/>
<stop offset="1" stop-color="#2997FF"/>
</linearGradient>
<linearGradient id="paint3_linear_3800_675" x1="214.773" y1="1154.91" x2="844.497" y2="1154.91" gradientUnits="userSpaceOnUse">
<stop stop-color="#00F0FF"/>
<stop offset="1" stop-color="#2997FF"/>
</linearGradient>
<linearGradient id="paint4_linear_3800_675" x1="98.25" y1="1011.01" x2="727.974" y2="1011.01" gradientUnits="userSpaceOnUse">
<stop stop-color="#00F0FF"/>
<stop offset="1" stop-color="#2997FF"/>
</linearGradient>
<linearGradient id="paint5_linear_3800_675" x1="50.3281" y1="832.166" x2="680.052" y2="832.166" gradientUnits="userSpaceOnUse">
<stop stop-color="#00F0FF"/>
<stop offset="1" stop-color="#2997FF"/>
</linearGradient>
<linearGradient id="paint6_linear_3800_675" x1="112.627" y1="992.277" x2="719.528" y2="992.277" gradientUnits="userSpaceOnUse">
<stop stop-color="#00F0FF"/>
<stop offset="1" stop-color="#2997FF"/>
</linearGradient>
<linearGradient id="paint7_linear_3800_675" x1="66.4434" y1="819.911" x2="673.345" y2="819.911" gradientUnits="userSpaceOnUse">
<stop stop-color="#00F0FF"/>
<stop offset="1" stop-color="#2997FF"/>
</linearGradient>
<linearGradient id="paint8_linear_3800_675" x1="94.3613" y1="643.661" x2="701.263" y2="643.661" gradientUnits="userSpaceOnUse">
<stop stop-color="#00F0FF"/>
<stop offset="1" stop-color="#2997FF"/>
</linearGradient>
<linearGradient id="paint9_linear_3800_675" x1="82.5566" y1="807.653" x2="666.635" y2="807.653" gradientUnits="userSpaceOnUse">
<stop stop-color="#00F0FF"/>
<stop offset="1" stop-color="#2997FF"/>
</linearGradient>
<linearGradient id="paint10_linear_3800_675" x1="109.426" y1="638.031" x2="693.504" y2="638.031" gradientUnits="userSpaceOnUse">
<stop stop-color="#00F0FF"/>
<stop offset="1" stop-color="#2997FF"/>
</linearGradient>
<linearGradient id="paint11_linear_3800_675" x1="202.959" y1="494" x2="787.037" y2="494" gradientUnits="userSpaceOnUse">
<stop stop-color="#00F0FF"/>
<stop offset="1" stop-color="#2997FF"/>
</linearGradient>
<linearGradient id="paint12_linear_3800_675" x1="124.488" y1="632.403" x2="685.744" y2="632.403" gradientUnits="userSpaceOnUse">
<stop stop-color="#00F0FF"/>
<stop offset="1" stop-color="#2997FF"/>
</linearGradient>
<linearGradient id="paint13_linear_3800_675" x1="214.369" y1="494.002" x2="775.625" y2="494.002" gradientUnits="userSpaceOnUse">
<stop stop-color="#00F0FF"/>
<stop offset="1" stop-color="#2997FF"/>
</linearGradient>
<linearGradient id="paint14_linear_3800_675" x1="352.775" y1="404.123" x2="914.031" y2="404.123" gradientUnits="userSpaceOnUse">
<stop stop-color="#00F0FF"/>
<stop offset="1" stop-color="#2997FF"/>
</linearGradient>
<linearGradient id="paint15_linear_3800_675" x1="225.775" y1="493.997" x2="764.209" y2="493.997" gradientUnits="userSpaceOnUse">
<stop stop-color="#00F0FF"/>
<stop offset="1" stop-color="#2997FF"/>
</linearGradient>
<linearGradient id="paint16_linear_3800_675" x1="358.555" y1="407.774" x2="896.988" y2="407.774" gradientUnits="userSpaceOnUse">
<stop stop-color="#00F0FF"/>
<stop offset="1" stop-color="#2997FF"/>
</linearGradient>
<linearGradient id="paint17_linear_3800_675" x1="514.918" y1="383.008" x2="1053.35" y2="383.008" gradientUnits="userSpaceOnUse">
<stop stop-color="#00F0FF"/>
<stop offset="1" stop-color="#2997FF"/>
</linearGradient>
<linearGradient id="paint18_linear_3800_675" x1="364.344" y1="411.43" x2="879.954" y2="411.43" gradientUnits="userSpaceOnUse">
<stop stop-color="#00F0FF"/>
<stop offset="1" stop-color="#2997FF"/>
</linearGradient>
<linearGradient id="paint19_linear_3800_675" x1="514.078" y1="387.715" x2="1029.69" y2="387.715" gradientUnits="userSpaceOnUse">
<stop stop-color="#00F0FF"/>
<stop offset="1" stop-color="#2997FF"/>
</linearGradient>
<linearGradient id="paint20_linear_3800_675" x1="660.52" y1="426.953" x2="1176.13" y2="426.953" gradientUnits="userSpaceOnUse">
<stop stop-color="#00F0FF"/>
<stop offset="1" stop-color="#2997FF"/>
</linearGradient>
<linearGradient id="paint21_linear_3800_675" x1="513.234" y1="392.419" x2="1006.02" y2="392.419" gradientUnits="userSpaceOnUse">
<stop stop-color="#00F0FF"/>
<stop offset="1" stop-color="#2997FF"/>
</linearGradient>
<linearGradient id="paint22_linear_3800_675" x1="653.193" y1="429.921" x2="1145.98" y2="429.921" gradientUnits="userSpaceOnUse">
<stop stop-color="#00F0FF"/>
<stop offset="1" stop-color="#2997FF"/>
</linearGradient>
<linearGradient id="paint23_linear_3800_675" x1="765.797" y1="521.106" x2="1258.58" y2="521.106" gradientUnits="userSpaceOnUse">
<stop stop-color="#00F0FF"/>
<stop offset="1" stop-color="#2997FF"/>
</linearGradient>
<linearGradient id="paint24_linear_3800_675" x1="645.865" y1="432.888" x2="1115.83" y2="432.888" gradientUnits="userSpaceOnUse">
<stop stop-color="#00F0FF"/>
<stop offset="1" stop-color="#2997FF"/>
</linearGradient>
<linearGradient id="paint25_linear_3800_675" x1="753.25" y1="519.85" x2="1223.22" y2="519.85" gradientUnits="userSpaceOnUse">
<stop stop-color="#00F0FF"/>
<stop offset="1" stop-color="#2997FF"/>
</linearGradient>
<linearGradient id="paint26_linear_3800_675" x1="815.982" y1="642.973" x2="1285.95" y2="642.973" gradientUnits="userSpaceOnUse">
<stop stop-color="#00F0FF"/>
<stop offset="1" stop-color="#2997FF"/>
</linearGradient>
<linearGradient id="paint27_linear_3800_675" x1="740.715" y1="518.594" x2="1187.86" y2="518.594" gradientUnits="userSpaceOnUse">
<stop stop-color="#00F0FF"/>
<stop offset="1" stop-color="#2997FF"/>
</linearGradient>
<linearGradient id="paint28_linear_3800_675" x1="800.404" y1="635.738" x2="1247.55" y2="635.738" gradientUnits="userSpaceOnUse">
<stop stop-color="#00F0FF"/>
<stop offset="1" stop-color="#2997FF"/>
</linearGradient>
<linearGradient id="paint29_linear_3800_675" x1="807.283" y1="767.032" x2="1254.43" y2="767.032" gradientUnits="userSpaceOnUse">
<stop stop-color="#00F0FF"/>
<stop offset="1" stop-color="#2997FF"/>
</linearGradient>
<linearGradient id="paint30_linear_3800_675" x1="784.816" y1="628.505" x2="1209.14" y2="628.505" gradientUnits="userSpaceOnUse">
<stop stop-color="#00F0FF"/>
<stop offset="1" stop-color="#2997FF"/>
</linearGradient>
<linearGradient id="paint31_linear_3800_675" x1="791.342" y1="753.097" x2="1215.66" y2="753.097" gradientUnits="userSpaceOnUse">
<stop stop-color="#00F0FF"/>
<stop offset="1" stop-color="#2997FF"/>
</linearGradient>
<linearGradient id="paint32_linear_3800_675" x1="746.635" y1="869.574" x2="1170.95" y2="869.574" gradientUnits="userSpaceOnUse">
<stop stop-color="#00F0FF"/>
<stop offset="1" stop-color="#2997FF"/>
</linearGradient>
<linearGradient id="paint33_linear_3800_675" x1="775.406" y1="739.161" x2="1176.9" y2="739.161" gradientUnits="userSpaceOnUse">
<stop stop-color="#00F0FF"/>
<stop offset="1" stop-color="#2997FF"/>
</linearGradient>
<linearGradient id="paint34_linear_3800_675" x1="733.1" y1="849.372" x2="1134.6" y2="849.372" gradientUnits="userSpaceOnUse">
<stop stop-color="#00F0FF"/>
<stop offset="1" stop-color="#2997FF"/>
</linearGradient>
<linearGradient id="paint35_linear_3800_675" x1="649.617" y1="932.848" x2="1051.11" y2="932.848" gradientUnits="userSpaceOnUse">
<stop stop-color="#00F0FF"/>
<stop offset="1" stop-color="#2997FF"/>
</linearGradient>
<linearGradient id="paint36_linear_3800_675" x1="719.564" y1="829.171" x2="1098.24" y2="829.171" gradientUnits="userSpaceOnUse">
<stop stop-color="#00F0FF"/>
<stop offset="1" stop-color="#2997FF"/>
</linearGradient>
<linearGradient id="paint37_linear_3800_675" x1="640.832" y1="907.9" x2="1019.51" y2="907.9" gradientUnits="userSpaceOnUse">
<stop stop-color="#00F0FF"/>
<stop offset="1" stop-color="#2997FF"/>
</linearGradient>
<linearGradient id="paint38_linear_3800_675" x1="536.887" y1="947.803" x2="915.561" y2="947.803" gradientUnits="userSpaceOnUse">
<stop stop-color="#00F0FF"/>
<stop offset="1" stop-color="#2997FF"/>
</linearGradient>
<linearGradient id="paint39_linear_3800_675" x1="632.041" y1="882.958" x2="987.893" y2="882.958" gradientUnits="userSpaceOnUse">
<stop stop-color="#00F0FF"/>
<stop offset="1" stop-color="#2997FF"/>
</linearGradient>
<linearGradient id="paint40_linear_3800_675" x1="534.361" y1="920.453" x2="890.214" y2="920.453" gradientUnits="userSpaceOnUse">
<stop stop-color="#00F0FF"/>
<stop offset="1" stop-color="#2997FF"/>
</linearGradient>
<linearGradient id="paint41_linear_3800_675" x1="429.873" y1="914.978" x2="785.725" y2="914.978" gradientUnits="userSpaceOnUse">
<stop stop-color="#00F0FF"/>
<stop offset="1" stop-color="#2997FF"/>
</linearGradient>
<linearGradient id="paint42_linear_3800_675" x1="531.834" y1="893.104" x2="864.864" y2="893.104" gradientUnits="userSpaceOnUse">
<stop stop-color="#00F0FF"/>
<stop offset="1" stop-color="#2997FF"/>
</linearGradient>
<linearGradient id="paint43_linear_3800_675" x1="434.045" y1="887.978" x2="767.074" y2="887.978" gradientUnits="userSpaceOnUse">
<stop stop-color="#00F0FF"/>
<stop offset="1" stop-color="#2997FF"/>
</linearGradient>
<linearGradient id="paint44_linear_3800_675" x1="346.797" y1="843.522" x2="679.826" y2="843.522" gradientUnits="userSpaceOnUse">
<stop stop-color="#00F0FF"/>
<stop offset="1" stop-color="#2997FF"/>
</linearGradient>
<linearGradient id="paint45_linear_3800_675" x1="438.227" y1="860.978" x2="748.433" y2="860.978" gradientUnits="userSpaceOnUse">
<stop stop-color="#00F0FF"/>
<stop offset="1" stop-color="#2997FF"/>
</linearGradient>
<linearGradient id="paint46_linear_3800_675" x1="356.959" y1="819.569" x2="667.166" y2="819.569" gradientUnits="userSpaceOnUse">
<stop stop-color="#00F0FF"/>
<stop offset="1" stop-color="#2997FF"/>
</linearGradient>
<linearGradient id="paint47_linear_3800_675" x1="299.557" y1="748.684" x2="609.763" y2="748.684" gradientUnits="userSpaceOnUse">
<stop stop-color="#00F0FF"/>
<stop offset="1" stop-color="#2997FF"/>
</linearGradient>
<linearGradient id="paint48_linear_3800_675" x1="367.115" y1="795.618" x2="654.499" y2="795.618" gradientUnits="userSpaceOnUse">
<stop stop-color="#00F0FF"/>
<stop offset="1" stop-color="#2997FF"/>
</linearGradient>
<linearGradient id="paint49_linear_3800_675" x1="313.939" y1="729.949" x2="601.324" y2="729.949" gradientUnits="userSpaceOnUse">
<stop stop-color="#00F0FF"/>
<stop offset="1" stop-color="#2997FF"/>
</linearGradient>
<linearGradient id="paint50_linear_3800_675" x1="292.07" y1="648.329" x2="579.455" y2="648.329" gradientUnits="userSpaceOnUse">
<stop stop-color="#00F0FF"/>
<stop offset="1" stop-color="#2997FF"/>
</linearGradient>
<linearGradient id="paint51_linear_3800_675" x1="328.316" y1="711.21" x2="592.878" y2="711.21" gradientUnits="userSpaceOnUse">
<stop stop-color="#00F0FF"/>
<stop offset="1" stop-color="#2997FF"/>
</linearGradient>
<linearGradient id="paint52_linear_3800_675" x1="308.186" y1="636.071" x2="572.747" y2="636.071" gradientUnits="userSpaceOnUse">
<stop stop-color="#00F0FF"/>
<stop offset="1" stop-color="#2997FF"/>
</linearGradient>
<linearGradient id="paint53_linear_3800_675" x1="320.352" y1="559.239" x2="584.913" y2="559.239" gradientUnits="userSpaceOnUse">
<stop stop-color="#00F0FF"/>
<stop offset="1" stop-color="#2997FF"/>
</linearGradient>
<linearGradient id="paint54_linear_3800_675" x1="324.295" y1="623.815" x2="566.034" y2="623.815" gradientUnits="userSpaceOnUse">
<stop stop-color="#00F0FF"/>
<stop offset="1" stop-color="#2997FF"/>
</linearGradient>
<linearGradient id="paint55_linear_3800_675" x1="335.418" y1="553.611" x2="577.157" y2="553.611" gradientUnits="userSpaceOnUse">
<stop stop-color="#00F0FF"/>
<stop offset="1" stop-color="#2997FF"/>
</linearGradient>
<linearGradient id="paint56_linear_3800_675" x1="347" y1="494" x2="643" y2="494" gradientUnits="userSpaceOnUse">
<stop stop-color="#00F0FF"/>
<stop offset="1" stop-color="#2997FF"/>
</linearGradient>
</defs>
</svg>
